<svg width="55" height="55" viewBox="0 0 55 55" fill="none" xmlns="http://www.w3.org/2000/svg">
<circle cx="27.5" cy="27.5" r="27.5" fill="#EDEDED"/>
<path d="M32.8196 13.7167C32.9818 13.8461 33.1389 13.9792 33.295 14.1147C33.3536 14.1639 33.4122 14.2132 33.4726 14.2639C33.9175 14.6486 34.259 15.0476 34.5884 15.5168C34.6493 15.6026 34.6493 15.6026 34.7114 15.69C35.8008 17.2945 36.1413 19.4088 35.6862 21.2435C35.1469 23.1631 33.8834 24.8698 32.0016 25.916C31.9433 25.951 31.8849 25.9859 31.8248 26.0219C30.0806 27.0189 27.803 27.2947 25.7934 26.9311C24.2356 26.6139 22.8682 25.9166 21.7193 24.9228C21.6469 24.863 21.6469 24.863 21.573 24.8019C21.1448 24.436 20.8152 24.0206 20.4906 23.5791C20.4499 23.5246 20.4092 23.4701 20.3673 23.4139C19.2514 21.8101 18.9378 19.6825 19.3973 17.8437C19.9437 15.9008 21.2306 14.185 23.1425 13.1317C23.8812 12.7381 24.6453 12.4562 25.4701 12.2452C25.5462 12.2252 25.6224 12.2052 25.7009 12.1847C28.1557 11.6607 30.8894 12.2764 32.8196 13.7167ZM23.8533 15.8674C23.8041 15.9063 23.7548 15.9452 23.704 15.9853C22.781 16.7643 22.0977 17.9946 22.0426 19.139C22.0393 19.1975 22.0359 19.2559 22.0325 19.3161C21.9928 20.6431 22.4933 21.8798 23.4653 22.878C23.53 22.9448 23.53 22.9448 23.5959 23.0129C24.4582 23.8468 25.8201 24.4641 27.0868 24.5139C27.1515 24.5169 27.2162 24.5199 27.2828 24.523C28.7517 24.5589 30.1206 24.1067 31.2256 23.2286C31.2749 23.1896 31.3241 23.1507 31.3749 23.1106C32.3835 22.2594 32.9623 21.0049 33.0495 19.7709C33.0706 18.4429 32.5893 17.2199 31.6136 16.2179C31.5705 16.1734 31.5274 16.1289 31.483 16.083C30.5409 15.1719 29.1522 14.6489 27.7863 14.5702C26.3163 14.5511 24.9625 14.9859 23.8533 15.8674Z" fill="#3F409B"/>
<path d="M35.7492 32.2617C35.9469 32.4225 36.1409 32.5865 36.3345 32.7514C36.3852 32.794 36.4359 32.8367 36.4881 32.8806C38.6381 34.7466 39.9045 37.5327 39.9878 40.2051C39.9893 40.2746 39.9908 40.3441 39.9923 40.4157C39.9949 40.482 39.9974 40.5483 40 40.6165C40.0016 41.0651 39.9054 41.355 39.5679 41.69C39.1419 42.0229 38.6841 42.0152 38.1452 41.9822C37.7592 41.8638 37.4957 41.6343 37.299 41.314C37.1324 41.0045 37.1272 40.6963 37.1105 40.3573C36.9757 38.4377 36.244 36.6174 34.8471 35.1467C34.8019 35.0988 34.7567 35.0508 34.7102 35.0014C33.223 33.4642 31.195 32.4753 28.9622 32.1672C28.8858 32.1565 28.8093 32.1458 28.7306 32.1348C27.6577 32.0186 26.5215 32.0574 25.4701 32.284C25.4223 32.2941 25.3746 32.3041 25.3254 32.3144C22.8614 32.8448 20.71 34.2412 19.3806 36.192C18.6165 37.3355 18.1015 38.6111 18.0039 39.9506C17.9992 40.0147 17.9945 40.0787 17.9896 40.1448C17.9812 40.2712 17.974 40.3976 17.9684 40.5242C17.9398 40.9723 17.8396 41.4082 17.4662 41.7302C17.032 42.0206 16.615 42.0207 16.0931 41.9822C15.7005 41.8923 15.4889 41.6849 15.2608 41.3922C14.6809 40.5095 15.2132 38.8039 15.4649 37.8675C15.8891 36.3852 16.6572 35.0006 17.7098 33.803C17.7386 33.7703 17.7673 33.7376 17.797 33.7038C18.4924 32.9208 19.2685 32.2323 20.1673 31.6414C20.2037 31.6173 20.2401 31.5931 20.2777 31.5682C24.9079 28.5405 31.481 28.8399 35.7492 32.2617Z" fill="#3F409B"/>
</svg>
