<?xml version="1.0" encoding="UTF-8"?>
<!DOCTYPE svg PUBLIC "-//W3C//DTD SVG 1.1//EN" "http://www.w3.org/Graphics/SVG/1.1/DTD/svg11.dtd">
<svg xmlns="http://www.w3.org/2000/svg" version="1.1" width="230px" height="184px" style="shape-rendering:geometricPrecision; text-rendering:geometricPrecision; image-rendering:optimizeQuality; fill-rule:evenodd; clip-rule:evenodd" xmlns:xlink="http://www.w3.org/1999/xlink">
<g><path style="opacity:1" fill="#fefefe" d="M -0.5,-0.5 C 76.1667,-0.5 152.833,-0.5 229.5,-0.5C 229.5,60.8333 229.5,122.167 229.5,183.5C 152.833,183.5 76.1667,183.5 -0.5,183.5C -0.5,122.167 -0.5,60.8333 -0.5,-0.5 Z"/></g>
<g><path style="opacity:1" fill="#3a3c93" d="M 64.5,47.5 C 74.1667,47.5 83.8333,47.5 93.5,47.5C 93.5,55.5 93.5,63.5 93.5,71.5C 76.5,71.5 59.5,71.5 42.5,71.5C 42.5,52.1667 42.5,32.8333 42.5,13.5C 49.5,13.5 56.5,13.5 63.5,13.5C 63.1719,25.0123 63.5052,36.3456 64.5,47.5 Z"/></g>
<g><path style="opacity:1" fill="#3b3d93" d="M 174.5,26.5 C 175.485,22.3656 175.818,18.0323 175.5,13.5C 178.833,13.5 182.167,13.5 185.5,13.5C 185.5,33.1667 185.5,52.8333 185.5,72.5C 178.167,72.5 170.833,72.5 163.5,72.5C 163.5,68.5 163.5,64.5 163.5,60.5C 159.833,60.5 156.167,60.5 152.5,60.5C 152.5,64.5 152.5,68.5 152.5,72.5C 146.167,72.5 139.833,72.5 133.5,72.5C 133.5,52.8333 133.5,33.1667 133.5,13.5C 136.833,13.5 140.167,13.5 143.5,13.5C 143.5,17.8333 143.5,22.1667 143.5,26.5C 146.5,26.5 149.5,26.5 152.5,26.5C 152.5,22.1667 152.5,17.8333 152.5,13.5C 156.5,13.5 160.5,13.5 164.5,13.5C 164.5,17.8333 164.5,22.1667 164.5,26.5C 167.833,26.5 171.167,26.5 174.5,26.5 Z"/></g>
<g><path style="opacity:1" fill="#8788b7" d="M 185.5,13.5 C 182.167,13.5 178.833,13.5 175.5,13.5C 175.818,18.0323 175.485,22.3656 174.5,26.5C 174.5,21.8333 174.5,17.1667 174.5,12.5C 178.371,12.185 182.038,12.5184 185.5,13.5 Z"/></g>
<g><path style="opacity:1" fill="#bbbcd5" d="M 64.5,47.5 C 63.5052,36.3456 63.1719,25.0123 63.5,13.5C 56.5,13.5 49.5,13.5 42.5,13.5C 42.5,32.8333 42.5,52.1667 42.5,71.5C 42.5,71.8333 42.5,72.1667 42.5,72.5C 41.5029,52.6736 41.1695,32.6736 41.5,12.5C 49.1667,12.5 56.8333,12.5 64.5,12.5C 64.5,24.1667 64.5,35.8333 64.5,47.5 Z"/></g>
<g><path style="opacity:1" fill="#52519c" d="M 93.5,47.5 C 94.4927,55.6499 94.8261,63.9832 94.5,72.5C 77.1667,72.5 59.8333,72.5 42.5,72.5C 42.5,72.1667 42.5,71.8333 42.5,71.5C 59.5,71.5 76.5,71.5 93.5,71.5C 93.5,63.5 93.5,55.5 93.5,47.5 Z"/></g>
<g><path style="opacity:1" fill="#3c3e94" d="M 42.5,84.5 C 90.1667,84.5 137.833,84.5 185.5,84.5C 188.845,115.974 177.178,139.807 150.5,156C 139.076,162.259 127.242,167.759 115,172.5C 97.0932,165.631 80.2599,156.797 64.5,146C 47.0372,129.291 39.7039,108.791 42.5,84.5 Z"/></g>
<g><path style="opacity:1" fill="#e9e9f0" d="M 114.5,90.5 C 117.744,92.0713 120.411,94.4046 122.5,97.5C 117.833,98.8333 113.167,98.8333 108.5,97.5C 110.523,95.1472 112.523,92.8138 114.5,90.5 Z"/></g>
<g><path style="opacity:1" fill="#cacbde" d="M 129.5,108.5 C 120.167,109.833 110.833,109.833 101.5,108.5C 103.294,106.203 105.294,104.037 107.5,102C 112.833,101.333 118.167,101.333 123.5,102C 125.706,104.037 127.706,106.203 129.5,108.5 Z"/></g>
<g><path style="opacity:1" fill="#424295" d="M 108.5,103.5 C 113.511,103.334 118.511,103.501 123.5,104C 124.614,105.57 125.947,106.903 127.5,108C 119.833,108.667 112.167,108.667 104.5,108C 106.041,106.629 107.375,105.129 108.5,103.5 Z"/></g>
<g><path style="opacity:1" fill="#acaeca" d="M 101.5,108.5 C 110.833,109.833 120.167,109.833 129.5,108.5C 130.043,108.56 130.376,108.893 130.5,109.5C 120.5,110.833 110.5,110.833 100.5,109.5C 100.624,108.893 100.957,108.56 101.5,108.5 Z"/></g>
<g><path style="opacity:1" fill="#fafafa" d="M 112.5,115.5 C 112.5,119.167 112.5,122.833 112.5,126.5C 108.833,126.5 105.167,126.5 101.5,126.5C 101.5,122.833 101.5,119.167 101.5,115.5C 105.167,115.5 108.833,115.5 112.5,115.5 Z"/></g>
<g><path style="opacity:1" fill="#fbfbfb" d="M 129.5,115.5 C 129.5,119.167 129.5,122.833 129.5,126.5C 125.833,126.5 122.167,126.5 118.5,126.5C 118.5,122.833 118.5,119.167 118.5,115.5C 122.167,115.5 125.833,115.5 129.5,115.5 Z"/></g>
<g><path style="opacity:1" fill="#9193bf" d="M 112.5,115.5 C 113.483,119.298 113.817,123.298 113.5,127.5C 109.298,127.817 105.298,127.483 101.5,126.5C 105.167,126.5 108.833,126.5 112.5,126.5C 112.5,122.833 112.5,119.167 112.5,115.5 Z"/></g>
<g><path style="opacity:1" fill="#9c9ec5" d="M 129.5,115.5 C 130.483,119.298 130.817,123.298 130.5,127.5C 126.298,127.817 122.298,127.483 118.5,126.5C 122.167,126.5 125.833,126.5 129.5,126.5C 129.5,122.833 129.5,119.167 129.5,115.5 Z"/></g>
<g><path style="opacity:1" fill="#fcfcfc" d="M 101.5,131.5 C 105.167,131.5 108.833,131.5 112.5,131.5C 112.5,135.167 112.5,138.833 112.5,142.5C 108.833,142.5 105.167,142.5 101.5,142.5C 101.5,138.833 101.5,135.167 101.5,131.5 Z"/></g>
<g><path style="opacity:1" fill="#fcfcfc" d="M 118.5,131.5 C 122.167,131.5 125.833,131.5 129.5,131.5C 129.5,135.167 129.5,138.833 129.5,142.5C 125.833,142.5 122.167,142.5 118.5,142.5C 118.5,138.833 118.5,135.167 118.5,131.5 Z"/></g>
<g><path style="opacity:1" fill="#fdfdfd" d="M 101.5,147.5 C 105.167,147.5 108.833,147.5 112.5,147.5C 112.5,151.167 112.5,154.833 112.5,158.5C 108.833,158.5 105.167,158.5 101.5,158.5C 101.5,154.833 101.5,151.167 101.5,147.5 Z"/></g>
<g><path style="opacity:1" fill="#fdfdfd" d="M 118.5,147.5 C 122.167,147.5 125.833,147.5 129.5,147.5C 129.5,151.167 129.5,154.833 129.5,158.5C 125.833,158.5 122.167,158.5 118.5,158.5C 118.5,154.833 118.5,151.167 118.5,147.5 Z"/></g>
</svg>
