<?xml version="1.0" encoding="UTF-8"?>
<!DOCTYPE svg PUBLIC "-//W3C//DTD SVG 1.1//EN" "http://www.w3.org/Graphics/SVG/1.1/DTD/svg11.dtd">
<svg xmlns="http://www.w3.org/2000/svg" version="1.1" width="230px" height="184px" style="shape-rendering:geometricPrecision; text-rendering:geometricPrecision; image-rendering:optimizeQuality; fill-rule:evenodd; clip-rule:evenodd" xmlns:xlink="http://www.w3.org/1999/xlink">
<g><path style="opacity:1" fill="#fefefe" d="M -0.5,-0.5 C 76.1667,-0.5 152.833,-0.5 229.5,-0.5C 229.5,60.8333 229.5,122.167 229.5,183.5C 152.833,183.5 76.1667,183.5 -0.5,183.5C -0.5,122.167 -0.5,60.8333 -0.5,-0.5 Z"/></g>
<g><path style="opacity:1" fill="#3a3c93" d="M 65.5,16.5 C 65.5,27.8333 65.5,39.1667 65.5,50.5C 75.5,50.5 85.5,50.5 95.5,50.5C 95.5,58.5 95.5,66.5 95.5,74.5C 78.8333,74.5 62.1667,74.5 45.5,74.5C 45.5,55.1667 45.5,35.8333 45.5,16.5C 52.1667,16.5 58.8333,16.5 65.5,16.5 Z"/></g>
<g><path style="opacity:1" fill="#3a3c93" d="M 143.5,16.5 C 143.5,20.8333 143.5,25.1667 143.5,29.5C 146.833,29.5 150.167,29.5 153.5,29.5C 153.5,25.1667 153.5,20.8333 153.5,16.5C 157.167,16.5 160.833,16.5 164.5,16.5C 164.5,20.5 164.5,24.5 164.5,28.5C 167.962,29.4816 171.629,29.815 175.5,29.5C 175.5,25.1667 175.5,20.8333 175.5,16.5C 178.833,16.5 182.167,16.5 185.5,16.5C 185.5,35.8333 185.5,55.1667 185.5,74.5C 178.5,74.5 171.5,74.5 164.5,74.5C 164.5,70.5 164.5,66.5 164.5,62.5C 160.5,62.5 156.5,62.5 152.5,62.5C 152.5,66.5 152.5,70.5 152.5,74.5C 146.5,74.5 140.5,74.5 134.5,74.5C 134.5,55.1667 134.5,35.8333 134.5,16.5C 137.5,16.5 140.5,16.5 143.5,16.5 Z"/></g>
<g><path style="opacity:1" fill="#a3a4c9" d="M 143.5,16.5 C 144.483,20.2984 144.817,24.2984 144.5,28.5C 147.167,28.5 149.833,28.5 152.5,28.5C 152.183,24.2984 152.517,20.2984 153.5,16.5C 153.5,20.8333 153.5,25.1667 153.5,29.5C 150.167,29.5 146.833,29.5 143.5,29.5C 143.5,25.1667 143.5,20.8333 143.5,16.5 Z"/></g>
<g><path style="opacity:1" fill="#a2a3c9" d="M 175.5,16.5 C 175.5,20.8333 175.5,25.1667 175.5,29.5C 171.629,29.815 167.962,29.4816 164.5,28.5C 167.833,28.5 171.167,28.5 174.5,28.5C 174.183,24.2984 174.517,20.2984 175.5,16.5 Z"/></g>
<g><path style="opacity:1" fill="#8383b7" d="M 65.5,16.5 C 58.8333,16.5 52.1667,16.5 45.5,16.5C 45.5,35.8333 45.5,55.1667 45.5,74.5C 44.5029,55.0071 44.1696,35.3404 44.5,15.5C 51.6866,15.1755 58.6866,15.5088 65.5,16.5 Z"/></g>
<g><path style="opacity:1" fill="#a1a1ca" d="M 65.5,16.5 C 66.4946,27.3206 66.8279,38.3206 66.5,49.5C 76.5,49.5 86.5,49.5 96.5,49.5C 96.8261,58.0168 96.4927,66.3501 95.5,74.5C 95.5,66.5 95.5,58.5 95.5,50.5C 85.5,50.5 75.5,50.5 65.5,50.5C 65.5,39.1667 65.5,27.8333 65.5,16.5 Z"/></g>
<g><path style="opacity:1" fill="#6a6caa" d="M 185.5,87.5 C 138.833,87.5 92.1667,87.5 45.5,87.5C 45.5,92.5 45.5,97.5 45.5,102.5C 44.5119,97.3595 44.1786,92.0262 44.5,86.5C 91.6696,86.1679 138.67,86.5012 185.5,87.5 Z"/></g>
<g><path style="opacity:1" fill="#3b3c93" d="M 185.5,87.5 C 188.246,118.176 176.579,141.343 150.5,157C 139.519,162.991 128.186,168.158 116.5,172.5C 94.7751,165.728 75.6085,154.728 59,139.5C 50.5893,128.663 46.0893,116.33 45.5,102.5C 45.5,97.5 45.5,92.5 45.5,87.5C 92.1667,87.5 138.833,87.5 185.5,87.5 Z"/></g>
<g><path style="opacity:1" fill="#7979b2" d="M 118.5,104.5 C 117.835,102.631 117.169,100.631 116.5,98.5C 115.831,100.631 115.165,102.631 114.5,104.5C 114.5,102.167 114.5,99.8333 114.5,97.5C 115.833,97.5 117.167,97.5 118.5,97.5C 118.5,99.8333 118.5,102.167 118.5,104.5 Z"/></g>
<g><path style="opacity:1" fill="#c8c9db" d="M 106.5,112.5 C 105.675,108.353 105.175,104.019 105,99.5C 104.5,106.826 104.334,114.159 104.5,121.5C 103.508,114.018 103.175,106.352 103.5,98.5C 104.5,98.5 105.5,98.5 106.5,98.5C 106.5,103.167 106.5,107.833 106.5,112.5 Z"/></g>
<g><path style="opacity:1" fill="#f4f4f6" d="M 126.5,99.5 C 128.463,106.424 129.13,113.757 128.5,121.5C 125.277,123.364 122.11,125.364 119,127.5C 116.622,120.505 118.788,115.838 125.5,113.5C 126.493,108.88 126.827,104.214 126.5,99.5 Z"/></g>
<g><path style="opacity:1" fill="#b1b3ce" d="M 126.5,99.5 C 127.209,98.596 128.209,98.2627 129.5,98.5C 129.825,106.352 129.492,114.018 128.5,121.5C 129.13,113.757 128.463,106.424 126.5,99.5 Z"/></g>
<g><path style="opacity:1" fill="#d2d4e2" d="M 118.5,104.5 C 119.81,106.148 121.143,107.814 122.5,109.5C 118.204,116.259 114.204,116.092 110.5,109C 112.018,107.649 113.351,106.149 114.5,104.5C 115.165,102.631 115.831,100.631 116.5,98.5C 117.169,100.631 117.835,102.631 118.5,104.5 Z"/></g>
<g><path style="opacity:1" fill="#474799" d="M 115.5,105.5 C 119.817,106.554 120.817,108.721 118.5,112C 112.17,112.175 111.17,110.008 115.5,105.5 Z"/></g>
<g><path style="opacity:1" fill="#f6f7f8" d="M 106.5,112.5 C 108.59,114.39 110.923,116.057 113.5,117.5C 114.657,120.784 114.824,124.118 114,127.5C 110.89,125.364 107.723,123.364 104.5,121.5C 104.334,114.159 104.5,106.826 105,99.5C 105.175,104.019 105.675,108.353 106.5,112.5 Z"/></g>
<g><path style="opacity:1" fill="#f1f1f5" d="M 103.5,127.5 C 107.048,128.607 110.381,130.274 113.5,132.5C 114.833,135.833 114.833,139.167 113.5,142.5C 110.467,140.302 107.3,138.302 104,136.5C 103.502,133.518 103.335,130.518 103.5,127.5 Z"/></g>
<g><path style="opacity:1" fill="#eff0f4" d="M 127.5,126.5 C 128.777,127.694 129.444,129.36 129.5,131.5C 129.167,133.167 128.833,134.833 128.5,136.5C 125.249,138.375 122.082,140.375 119,142.5C 118.333,139.167 118.333,135.833 119,132.5C 122.291,131.025 125.125,129.025 127.5,126.5 Z"/></g>
<g><path style="opacity:1" fill="#f0f0f4" d="M 103.5,142.5 C 107.048,143.607 110.381,145.274 113.5,147.5C 114.833,150.833 114.833,154.167 113.5,157.5C 110.467,155.302 107.3,153.302 104,151.5C 103.502,148.518 103.335,145.518 103.5,142.5 Z"/></g>
<g><path style="opacity:1" fill="#efeff4" d="M 127.5,141.5 C 128.777,142.694 129.444,144.36 129.5,146.5C 129.167,148.167 128.833,149.833 128.5,151.5C 125.249,153.375 122.082,155.375 119,157.5C 118.176,154.118 118.343,150.784 119.5,147.5C 122.593,145.966 125.26,143.966 127.5,141.5 Z"/></g>
</svg>
