<?xml version="1.0" encoding="UTF-8"?>
<!DOCTYPE svg PUBLIC "-//W3C//DTD SVG 1.1//EN" "http://www.w3.org/Graphics/SVG/1.1/DTD/svg11.dtd">
<svg xmlns="http://www.w3.org/2000/svg" version="1.1" width="230px" height="184px" style="shape-rendering:geometricPrecision; text-rendering:geometricPrecision; image-rendering:optimizeQuality; fill-rule:evenodd; clip-rule:evenodd" xmlns:xlink="http://www.w3.org/1999/xlink">
<g><path style="opacity:1" fill="#fefefe" d="M -0.5,-0.5 C 76.1667,-0.5 152.833,-0.5 229.5,-0.5C 229.5,60.8333 229.5,122.167 229.5,183.5C 152.833,183.5 76.1667,183.5 -0.5,183.5C -0.5,122.167 -0.5,60.8333 -0.5,-0.5 Z"/></g>
<g><path style="opacity:1" fill="#3a3c93" d="M 134.5,16.5 C 137.5,16.5 140.5,16.5 143.5,16.5C 143.5,20.8333 143.5,25.1667 143.5,29.5C 146.833,29.5 150.167,29.5 153.5,29.5C 153.5,25.1667 153.5,20.8333 153.5,16.5C 157.167,16.5 160.833,16.5 164.5,16.5C 164.5,20.8333 164.5,25.1667 164.5,29.5C 168.167,29.5 171.833,29.5 175.5,29.5C 175.5,25.1667 175.5,20.8333 175.5,16.5C 178.833,16.5 182.167,16.5 185.5,16.5C 185.5,36.1667 185.5,55.8333 185.5,75.5C 178.5,75.5 171.5,75.5 164.5,75.5C 164.5,71.1667 164.5,66.8333 164.5,62.5C 160.5,62.5 156.5,62.5 152.5,62.5C 152.5,66.5 152.5,70.5 152.5,74.5C 146.5,74.5 140.5,74.5 134.5,74.5C 134.5,55.1667 134.5,35.8333 134.5,16.5 Z"/></g>
<g><path style="opacity:1" fill="#3c3e94" d="M 64.5,16.5 C 64.5,27.8333 64.5,39.1667 64.5,50.5C 74.8333,50.5 85.1667,50.5 95.5,50.5C 95.5,58.8333 95.5,67.1667 95.5,75.5C 78.1667,75.5 60.8333,75.5 43.5,75.5C 43.5,55.8333 43.5,36.1667 43.5,16.5C 50.5,16.5 57.5,16.5 64.5,16.5 Z"/></g>
<g><path style="opacity:1" fill="#cfd3de" d="M 64.5,16.5 C 65.4946,27.3206 65.8279,38.3206 65.5,49.5C 75.6806,49.1726 85.6806,49.506 95.5,50.5C 85.1667,50.5 74.8333,50.5 64.5,50.5C 64.5,39.1667 64.5,27.8333 64.5,16.5 Z"/></g>
<g><path style="opacity:1" fill="#5d5ea0" d="M 134.5,16.5 C 134.5,35.8333 134.5,55.1667 134.5,74.5C 140.5,74.5 146.5,74.5 152.5,74.5C 152.5,74.8333 152.5,75.1667 152.5,75.5C 146.167,75.5 139.833,75.5 133.5,75.5C 133.17,55.6596 133.503,35.9929 134.5,16.5 Z"/></g>
<g><path style="opacity:1" fill="#b8b9d2" d="M 164.5,16.5 C 160.833,16.5 157.167,16.5 153.5,16.5C 153.5,20.8333 153.5,25.1667 153.5,29.5C 150.167,29.5 146.833,29.5 143.5,29.5C 143.5,25.1667 143.5,20.8333 143.5,16.5C 144.483,20.2984 144.817,24.2984 144.5,28.5C 147.167,28.5 149.833,28.5 152.5,28.5C 152.5,24.1667 152.5,19.8333 152.5,15.5C 156.702,15.1832 160.702,15.5166 164.5,16.5 Z"/></g>
<g><path style="opacity:1" fill="#bfc0d7" d="M 164.5,16.5 C 165.483,20.2984 165.817,24.2984 165.5,28.5C 168.5,28.5 171.5,28.5 174.5,28.5C 174.183,24.2984 174.517,20.2984 175.5,16.5C 175.5,20.8333 175.5,25.1667 175.5,29.5C 171.833,29.5 168.167,29.5 164.5,29.5C 164.5,25.1667 164.5,20.8333 164.5,16.5 Z"/></g>
<g><path style="opacity:1" fill="#c7c9da" d="M 164.5,75.5 C 163.517,71.7016 163.183,67.7016 163.5,63.5C 160.167,63.5 156.833,63.5 153.5,63.5C 153.817,67.7016 153.483,71.7016 152.5,75.5C 152.5,75.1667 152.5,74.8333 152.5,74.5C 152.5,70.5 152.5,66.5 152.5,62.5C 156.5,62.5 160.5,62.5 164.5,62.5C 164.5,66.8333 164.5,71.1667 164.5,75.5 Z"/></g>
<g><path style="opacity:1" fill="#3c3d93" d="M 43.5,87.5 C 90.8333,87.5 138.167,87.5 185.5,87.5C 188.954,119.428 176.954,143.261 149.5,159C 138.633,164.851 127.466,170.017 116,174.5C 98.7755,168.305 82.6089,160.138 67.5,150C 48.9598,133.429 40.9598,112.595 43.5,87.5 Z"/></g>
<g><path style="opacity:1" fill="#f5f5f7" d="M 123.5,103.5 C 123.5,102.167 123.5,100.833 123.5,99.5C 118.305,99.1795 113.305,99.5128 108.5,100.5C 108.5,101.5 108.5,102.5 108.5,103.5C 107.5,103.5 106.5,103.5 105.5,103.5C 105.5,101.167 105.5,98.8333 105.5,96.5C 112.5,96.5 119.5,96.5 126.5,96.5C 126.5,98.8333 126.5,101.167 126.5,103.5C 125.5,103.5 124.5,103.5 123.5,103.5 Z"/></g>
<g><path style="opacity:1" fill="#8080b3" d="M 108.5,100.5 C 113.305,99.5128 118.305,99.1795 123.5,99.5C 123.5,100.833 123.5,102.167 123.5,103.5C 122.596,102.791 122.263,101.791 122.5,100.5C 117.833,100.5 113.167,100.5 108.5,100.5 Z"/></g>
<g><path style="opacity:1" fill="#f8f8f9" d="M 87.5,106.5 C 106.833,106.5 126.167,106.5 145.5,106.5C 145.5,121.833 145.5,137.167 145.5,152.5C 126.167,152.5 106.833,152.5 87.5,152.5C 87.5,137.167 87.5,121.833 87.5,106.5 Z"/></g>
<g><path style="opacity:1" fill="#8080b5" d="M 90.5,109.5 C 90.5,122.833 90.5,136.167 90.5,149.5C 107.5,149.5 124.5,149.5 141.5,149.5C 141.5,136.5 141.5,123.5 141.5,110.5C 137.167,110.5 132.833,110.5 128.5,110.5C 128.5,110.167 128.5,109.833 128.5,109.5C 133.167,109.5 137.833,109.5 142.5,109.5C 142.5,123.167 142.5,136.833 142.5,150.5C 124.833,150.5 107.167,150.5 89.5,150.5C 89.171,136.656 89.5043,122.99 90.5,109.5 Z"/></g>
<g><path style="opacity:1" fill="#dadbe8" d="M 102.5,109.5 C 103.493,118.318 103.827,127.318 103.5,136.5C 111.5,136.5 119.5,136.5 127.5,136.5C 127.173,127.318 127.507,118.318 128.5,109.5C 128.5,109.833 128.5,110.167 128.5,110.5C 128.5,119.5 128.5,128.5 128.5,137.5C 119.833,137.5 111.167,137.5 102.5,137.5C 102.5,128.167 102.5,118.833 102.5,109.5 Z"/></g>
<g><path style="opacity:1" fill="#696aa6" d="M 105.5,109.5 C 105.5,117.833 105.5,126.167 105.5,134.5C 112.5,134.5 119.5,134.5 126.5,134.5C 119.352,135.492 112.019,135.825 104.5,135.5C 104.174,126.651 104.507,117.984 105.5,109.5 Z"/></g>
<g><path style="opacity:1" fill="#434396" d="M 105.5,109.5 C 112.5,109.5 119.5,109.5 126.5,109.5C 126.5,117.833 126.5,126.167 126.5,134.5C 119.5,134.5 112.5,134.5 105.5,134.5C 105.5,126.167 105.5,117.833 105.5,109.5 Z"/></g>
<g><path style="opacity:1" fill="#3a3b93" d="M 90.5,109.5 C 94.5,109.5 98.5,109.5 102.5,109.5C 102.5,118.833 102.5,128.167 102.5,137.5C 111.167,137.5 119.833,137.5 128.5,137.5C 128.5,128.5 128.5,119.5 128.5,110.5C 132.833,110.5 137.167,110.5 141.5,110.5C 141.5,123.5 141.5,136.5 141.5,149.5C 124.5,149.5 107.5,149.5 90.5,149.5C 90.5,136.167 90.5,122.833 90.5,109.5 Z"/></g>
<g><path style="opacity:1" fill="#f6f6f8" d="M 111.5,124.5 C 114.167,124.5 116.833,124.5 119.5,124.5C 119.5,127.167 119.5,129.833 119.5,132.5C 116.833,132.5 114.167,132.5 111.5,132.5C 111.5,129.833 111.5,127.167 111.5,124.5 Z"/></g>
<g><path style="opacity:1" fill="#f6f6f8" d="M 111.5,113.5 C 114.167,113.5 116.833,113.5 119.5,113.5C 119.5,116.167 119.5,118.833 119.5,121.5C 116.833,121.5 114.167,121.5 111.5,121.5C 111.5,118.833 111.5,116.167 111.5,113.5 Z"/></g>
<g><path style="opacity:1" fill="#ddddea" d="M 87.5,106.5 C 87.5,121.833 87.5,137.167 87.5,152.5C 106.833,152.5 126.167,152.5 145.5,152.5C 126.007,153.497 106.34,153.83 86.5,153.5C 86.1704,137.658 86.5037,121.991 87.5,106.5 Z"/></g>
</svg>
