<?xml version="1.0" encoding="UTF-8"?>
<!DOCTYPE svg PUBLIC "-//W3C//DTD SVG 1.1//EN" "http://www.w3.org/Graphics/SVG/1.1/DTD/svg11.dtd">
<svg xmlns="http://www.w3.org/2000/svg" version="1.1" width="230px" height="184px" style="shape-rendering:geometricPrecision; text-rendering:geometricPrecision; image-rendering:optimizeQuality; fill-rule:evenodd; clip-rule:evenodd" xmlns:xlink="http://www.w3.org/1999/xlink">
<g><path style="opacity:1" fill="#fefefe" d="M -0.5,-0.5 C 76.1667,-0.5 152.833,-0.5 229.5,-0.5C 229.5,60.8333 229.5,122.167 229.5,183.5C 152.833,183.5 76.1667,183.5 -0.5,183.5C -0.5,122.167 -0.5,60.8333 -0.5,-0.5 Z"/></g>
<g><path style="opacity:1" fill="#393b93" d="M 65.5,50.5 C 75.3194,51.494 85.3194,51.8274 95.5,51.5C 95.5,59.5 95.5,67.5 95.5,75.5C 78.5,75.5 61.5,75.5 44.5,75.5C 44.5,56.1667 44.5,36.8333 44.5,17.5C 51.1667,17.5 57.8333,17.5 64.5,17.5C 64.1721,28.6794 64.5054,39.6794 65.5,50.5 Z"/></g>
<g><path style="opacity:1" fill="#3a3c93" d="M 134.5,17.5 C 137.5,17.5 140.5,17.5 143.5,17.5C 143.183,21.7016 143.517,25.7016 144.5,29.5C 147.5,29.5 150.5,29.5 153.5,29.5C 154.483,25.7016 154.817,21.7016 154.5,17.5C 157.833,17.5 161.167,17.5 164.5,17.5C 164.183,21.7016 164.517,25.7016 165.5,29.5C 168.833,29.5 172.167,29.5 175.5,29.5C 175.5,25.5 175.5,21.5 175.5,17.5C 178.833,17.5 182.167,17.5 185.5,17.5C 185.5,36.8333 185.5,56.1667 185.5,75.5C 178.833,75.5 172.167,75.5 165.5,75.5C 165.817,71.2984 165.483,67.2984 164.5,63.5C 160.833,63.5 157.167,63.5 153.5,63.5C 153.5,67.5 153.5,71.5 153.5,75.5C 147.167,75.5 140.833,75.5 134.5,75.5C 134.5,56.1667 134.5,36.8333 134.5,17.5 Z"/></g>
<g><path style="opacity:1" fill="#6a69a7" d="M 65.5,50.5 C 64.5054,39.6794 64.1721,28.6794 64.5,17.5C 57.8333,17.5 51.1667,17.5 44.5,17.5C 44.5,36.8333 44.5,56.1667 44.5,75.5C 43.5029,56.0071 43.1696,36.3404 43.5,16.5C 50.8333,16.5 58.1667,16.5 65.5,16.5C 65.5,27.8333 65.5,39.1667 65.5,50.5 Z"/></g>
<g><path style="opacity:1" fill="#6a6aa7" d="M 134.5,17.5 C 137.625,16.5206 140.958,16.1872 144.5,16.5C 144.5,20.8333 144.5,25.1667 144.5,29.5C 143.517,25.7016 143.183,21.7016 143.5,17.5C 140.5,17.5 137.5,17.5 134.5,17.5 Z"/></g>
<g><path style="opacity:1" fill="#6d6da9" d="M 165.5,29.5 C 164.517,25.7016 164.183,21.7016 164.5,17.5C 161.167,17.5 157.833,17.5 154.5,17.5C 154.817,21.7016 154.483,25.7016 153.5,29.5C 153.5,25.1667 153.5,20.8333 153.5,16.5C 157.5,16.5 161.5,16.5 165.5,16.5C 165.5,20.8333 165.5,25.1667 165.5,29.5 Z"/></g>
<g><path style="opacity:1" fill="#6767a6" d="M 175.5,17.5 C 178.962,16.5184 182.629,16.185 186.5,16.5C 186.5,36.1667 186.5,55.8333 186.5,75.5C 186.167,75.5 185.833,75.5 185.5,75.5C 185.5,56.1667 185.5,36.8333 185.5,17.5C 182.167,17.5 178.833,17.5 175.5,17.5 Z"/></g>
<g><path style="opacity:1" fill="#a7a9c8" d="M 65.5,50.5 C 75.8333,50.5 86.1667,50.5 96.5,50.5C 96.8261,59.0168 96.4927,67.3501 95.5,75.5C 95.5,67.5 95.5,59.5 95.5,51.5C 85.3194,51.8274 75.3194,51.494 65.5,50.5 Z"/></g>
<g><path style="opacity:1" fill="#aeaecd" d="M 164.5,63.5 C 165.483,67.2984 165.817,71.2984 165.5,75.5C 172.167,75.5 178.833,75.5 185.5,75.5C 185.833,75.5 186.167,75.5 186.5,75.5C 179.352,76.4916 172.019,76.825 164.5,76.5C 164.5,72.1667 164.5,67.8333 164.5,63.5 Z"/></g>
<g><path style="opacity:1" fill="#3b3d93" d="M 43.5,88.5 C 90.8333,88.5 138.167,88.5 185.5,88.5C 185.5,94.5 185.5,100.5 185.5,106.5C 184.189,127.963 174.522,144.463 156.5,156C 143.529,163.319 130.196,169.819 116.5,175.5C 96.082,168.38 77.582,158.046 61,144.5C 53.0256,135.218 47.6923,124.551 45,112.5C 43.8359,104.541 43.3359,96.5415 43.5,88.5 Z"/></g>
<g><path style="opacity:1" fill="#8585b6" d="M 43.5,88.5 C 90.9971,87.5012 138.664,87.1679 186.5,87.5C 186.823,94.0221 186.49,100.355 185.5,106.5C 185.5,100.5 185.5,94.5 185.5,88.5C 138.167,88.5 90.8333,88.5 43.5,88.5 Z"/></g>
<g><path style="opacity:1" fill="#e5e6ee" d="M 113.5,101.5 C 113.5,106.167 113.5,110.833 113.5,115.5C 108.833,115.5 104.167,115.5 99.5,115.5C 99.5,110.833 99.5,106.167 99.5,101.5C 104.167,101.5 108.833,101.5 113.5,101.5 Z"/></g>
<g><path style="opacity:1" fill="#7373ab" d="M 111.5,104.5 C 108.5,104.5 105.5,104.5 102.5,104.5C 102.5,107.5 102.5,110.5 102.5,113.5C 101.521,110.375 101.187,107.042 101.5,103.5C 105.042,103.187 108.375,103.521 111.5,104.5 Z"/></g>
<g><path style="opacity:1" fill="#3a3c93" d="M 111.5,104.5 C 111.5,107.5 111.5,110.5 111.5,113.5C 108.5,113.5 105.5,113.5 102.5,113.5C 102.5,110.5 102.5,107.5 102.5,104.5C 105.5,104.5 108.5,104.5 111.5,104.5 Z"/></g>
<g><path style="opacity:1" fill="#a3a3c5" d="M 113.5,101.5 C 114.487,106.305 114.821,111.305 114.5,116.5C 109.305,116.821 104.305,116.487 99.5,115.5C 104.167,115.5 108.833,115.5 113.5,115.5C 113.5,110.833 113.5,106.167 113.5,101.5 Z"/></g>
<g><path style="opacity:1" fill="#d3d3e2" d="M 117.5,101.5 C 122.5,101.5 127.5,101.5 132.5,101.5C 132.5,106.5 132.5,111.5 132.5,116.5C 117.848,113.32 112.015,118.987 115,133.5C 116.167,134.667 117.333,135.833 118.5,137C 123.155,137.499 127.821,137.666 132.5,137.5C 132.5,142.5 132.5,147.5 132.5,152.5C 127.5,152.5 122.5,152.5 117.5,152.5C 120.5,137.5 114.5,131.5 99.5,134.5C 99.5,129.5 99.5,124.5 99.5,119.5C 114.5,122.5 120.5,116.5 117.5,101.5 Z"/></g>
<g><path style="opacity:1" fill="#4f4e9c" d="M 119.5,103.5 C 123.167,103.5 126.833,103.5 130.5,103.5C 130.5,107.167 130.5,110.833 130.5,114.5C 126.833,114.5 123.167,114.5 119.5,114.5C 119.5,110.833 119.5,107.167 119.5,103.5 Z"/></g>
<g><path style="opacity:1" fill="#dcdde8" d="M 122.5,105.5 C 124.5,105.5 126.5,105.5 128.5,105.5C 128.5,107.833 128.5,110.167 128.5,112.5C 126.5,112.5 124.5,112.5 122.5,112.5C 122.5,110.167 122.5,107.833 122.5,105.5 Z"/></g>
<g><path style="opacity:1" fill="#cacbde" d="M 117.5,119.5 C 122.5,119.5 127.5,119.5 132.5,119.5C 132.5,124.5 132.5,129.5 132.5,134.5C 127.5,134.5 122.5,134.5 117.5,134.5C 117.5,129.5 117.5,124.5 117.5,119.5 Z"/></g>
<g><path style="opacity:1" fill="#f4f4f6" d="M 120.5,122.5 C 120.5,125.5 120.5,128.5 120.5,131.5C 123.625,132.479 126.958,132.813 130.5,132.5C 127.278,133.502 123.278,133.835 118.5,133.5C 118.5,129.167 118.5,124.833 118.5,120.5C 122.846,120.334 127.179,120.501 131.5,121C 127.644,121.177 123.977,121.677 120.5,122.5 Z"/></g>
<g><path style="opacity:1" fill="#393b92" d="M 120.5,122.5 C 123.5,122.5 126.5,122.5 129.5,122.5C 129.5,125.5 129.5,128.5 129.5,131.5C 126.5,131.5 123.5,131.5 120.5,131.5C 120.5,128.5 120.5,125.5 120.5,122.5 Z"/></g>
<g><path style="opacity:1" fill="#4a4b99" d="M 101.5,121.5 C 105.167,121.5 108.833,121.5 112.5,121.5C 112.5,125.167 112.5,128.833 112.5,132.5C 108.833,132.5 105.167,132.5 101.5,132.5C 101.5,128.833 101.5,125.167 101.5,121.5 Z"/></g>
<g><path style="opacity:1" fill="#a7a8cc" d="M 109.5,123.5 C 110.468,125.607 110.802,127.941 110.5,130.5C 107.941,130.802 105.607,130.468 103.5,129.5C 105.5,129.5 107.5,129.5 109.5,129.5C 109.5,127.5 109.5,125.5 109.5,123.5 Z"/></g>
<g><path style="opacity:1" fill="#f2f3f5" d="M 109.5,123.5 C 109.5,125.5 109.5,127.5 109.5,129.5C 107.5,129.5 105.5,129.5 103.5,129.5C 103.5,127.5 103.5,125.5 103.5,123.5C 105.5,123.5 107.5,123.5 109.5,123.5 Z"/></g>
<g><path style="opacity:1" fill="#7877b0" d="M 129.5,122.5 C 130.479,125.625 130.813,128.958 130.5,132.5C 126.958,132.813 123.625,132.479 120.5,131.5C 123.5,131.5 126.5,131.5 129.5,131.5C 129.5,128.5 129.5,125.5 129.5,122.5 Z"/></g>
<g><path style="opacity:1" fill="#7677b0" d="M 130.5,150.5 C 130.5,147.167 130.5,143.833 130.5,140.5C 127.167,140.5 123.833,140.5 120.5,140.5C 120.5,143.833 120.5,147.167 120.5,150.5C 119.518,147.038 119.185,143.371 119.5,139.5C 123.5,139.5 127.5,139.5 131.5,139.5C 131.815,143.371 131.482,147.038 130.5,150.5 Z"/></g>
<g><path style="opacity:1" fill="#4c4b9a" d="M 130.5,150.5 C 127.167,150.5 123.833,150.5 120.5,150.5C 120.5,147.167 120.5,143.833 120.5,140.5C 123.833,140.5 127.167,140.5 130.5,140.5C 130.5,143.833 130.5,147.167 130.5,150.5 Z"/></g>
<g><path style="opacity:1" fill="#f7f8f8" d="M 122.5,142.5 C 124.5,142.5 126.5,142.5 128.5,142.5C 128.5,144.5 128.5,146.5 128.5,148.5C 126.5,148.5 124.5,148.5 122.5,148.5C 122.5,146.5 122.5,144.5 122.5,142.5 Z"/></g>
<g><path style="opacity:1" fill="#e2e3ec" d="M 99.5,138.5 C 104.5,138.5 109.5,138.5 114.5,138.5C 114.5,143.167 114.5,147.833 114.5,152.5C 109.5,152.5 104.5,152.5 99.5,152.5C 99.5,147.833 99.5,143.167 99.5,138.5 Z"/></g>
<g><path style="opacity:1" fill="#8281b4" d="M 111.5,140.5 C 108.5,140.5 105.5,140.5 102.5,140.5C 102.5,143.5 102.5,146.5 102.5,149.5C 105.5,149.5 108.5,149.5 111.5,149.5C 108.375,150.479 105.042,150.813 101.5,150.5C 101.5,146.833 101.5,143.167 101.5,139.5C 105.042,139.187 108.375,139.521 111.5,140.5 Z"/></g>
<g><path style="opacity:1" fill="#3a3c93" d="M 111.5,140.5 C 111.5,143.5 111.5,146.5 111.5,149.5C 108.5,149.5 105.5,149.5 102.5,149.5C 102.5,146.5 102.5,143.5 102.5,140.5C 105.5,140.5 108.5,140.5 111.5,140.5 Z"/></g>
</svg>
