<?xml version="1.0" encoding="UTF-8"?>
<!DOCTYPE svg PUBLIC "-//W3C//DTD SVG 1.1//EN" "http://www.w3.org/Graphics/SVG/1.1/DTD/svg11.dtd">
<svg xmlns="http://www.w3.org/2000/svg" version="1.1" width="230px" height="184px" style="shape-rendering:geometricPrecision; text-rendering:geometricPrecision; image-rendering:optimizeQuality; fill-rule:evenodd; clip-rule:evenodd" xmlns:xlink="http://www.w3.org/1999/xlink">
<g><path style="opacity:1" fill="#fefefe" d="M -0.5,-0.5 C 76.1667,-0.5 152.833,-0.5 229.5,-0.5C 229.5,60.8333 229.5,122.167 229.5,183.5C 152.833,183.5 76.1667,183.5 -0.5,183.5C -0.5,122.167 -0.5,60.8333 -0.5,-0.5 Z"/></g>
<g><path style="opacity:1" fill="#3a3c93" d="M 164.5,16.5 C 164.5,20.8333 164.5,25.1667 164.5,29.5C 168.371,29.815 172.038,29.4816 175.5,28.5C 175.5,24.5 175.5,20.5 175.5,16.5C 178.833,16.5 182.167,16.5 185.5,16.5C 185.5,35.8333 185.5,55.1667 185.5,74.5C 178.833,74.5 172.167,74.5 165.5,74.5C 165.817,70.2984 165.483,66.2984 164.5,62.5C 160.833,62.5 157.167,62.5 153.5,62.5C 153.5,66.5 153.5,70.5 153.5,74.5C 147.167,74.5 140.833,74.5 134.5,74.5C 134.5,55.1667 134.5,35.8333 134.5,16.5C 137.833,16.5 141.167,16.5 144.5,16.5C 144.5,20.8333 144.5,25.1667 144.5,29.5C 147.5,29.5 150.5,29.5 153.5,29.5C 153.5,25.1667 153.5,20.8333 153.5,16.5C 157.167,16.5 160.833,16.5 164.5,16.5 Z"/></g>
<g><path style="opacity:1" fill="#3c3d93" d="M 44.5,16.5 C 51.5,16.5 58.5,16.5 65.5,16.5C 65.5,27.8333 65.5,39.1667 65.5,50.5C 75.5,50.5 85.5,50.5 95.5,50.5C 95.5,58.5 95.5,66.5 95.5,74.5C 78.5,74.5 61.5,74.5 44.5,74.5C 44.5,55.1667 44.5,35.8333 44.5,16.5 Z"/></g>
<g><path style="opacity:1" fill="#a9abcc" d="M 44.5,16.5 C 51.6476,15.5084 58.9809,15.175 66.5,15.5C 66.5,26.8333 66.5,38.1667 66.5,49.5C 76.5,49.5 86.5,49.5 96.5,49.5C 96.5,58.1667 96.5,66.8333 96.5,75.5C 78.992,75.83 61.6586,75.4967 44.5,74.5C 61.5,74.5 78.5,74.5 95.5,74.5C 95.5,66.5 95.5,58.5 95.5,50.5C 85.5,50.5 75.5,50.5 65.5,50.5C 65.5,39.1667 65.5,27.8333 65.5,16.5C 58.5,16.5 51.5,16.5 44.5,16.5 Z"/></g>
<g><path style="opacity:1" fill="#9c9cc7" d="M 164.5,16.5 C 165.483,20.2984 165.817,24.2984 165.5,28.5C 168.833,28.5 172.167,28.5 175.5,28.5C 172.038,29.4816 168.371,29.815 164.5,29.5C 164.5,25.1667 164.5,20.8333 164.5,16.5 Z"/></g>
<g><path style="opacity:1" fill="#8e8ebb" d="M 185.5,16.5 C 186.497,35.9929 186.83,55.6596 186.5,75.5C 179.167,75.5 171.833,75.5 164.5,75.5C 164.5,71.1667 164.5,66.8333 164.5,62.5C 165.483,66.2984 165.817,70.2984 165.5,74.5C 172.167,74.5 178.833,74.5 185.5,74.5C 185.5,55.1667 185.5,35.8333 185.5,16.5 Z"/></g>
<g><path style="opacity:1" fill="#8f8dbe" d="M 44.5,87.5 C 91.6637,86.5012 138.997,86.1679 186.5,86.5C 186.821,91.6946 186.487,96.6946 185.5,101.5C 185.5,96.8333 185.5,92.1667 185.5,87.5C 138.5,87.5 91.5,87.5 44.5,87.5 Z"/></g>
<g><path style="opacity:1" fill="#3b3d93" d="M 44.5,87.5 C 91.5,87.5 138.5,87.5 185.5,87.5C 185.5,92.1667 185.5,96.8333 185.5,101.5C 184.875,126.261 173.875,144.761 152.5,157C 140.884,163.308 128.884,168.808 116.5,173.5C 97.2794,166.753 79.6127,157.253 63.5,145C 48.705,128.781 42.3716,109.614 44.5,87.5 Z"/></g>
<g><path style="opacity:1" fill="#ebecf2" d="M 112.5,98.5 C 111.532,100.607 111.198,102.941 111.5,105.5C 110.5,105.5 109.5,105.5 108.5,105.5C 108.802,102.941 108.468,100.607 107.5,98.5C 107.5,96.8333 107.5,95.1667 107.5,93.5C 109.167,93.5 110.833,93.5 112.5,93.5C 112.5,95.1667 112.5,96.8333 112.5,98.5 Z"/></g>
<g><path style="opacity:1" fill="#ebebf1" d="M 126.5,98.5 C 125.532,100.607 125.198,102.941 125.5,105.5C 124.5,105.5 123.5,105.5 122.5,105.5C 122.802,102.941 122.468,100.607 121.5,98.5C 121.5,96.8333 121.5,95.1667 121.5,93.5C 123.167,93.5 124.833,93.5 126.5,93.5C 126.5,95.1667 126.5,96.8333 126.5,98.5 Z"/></g>
<g><path style="opacity:1" fill="#8a8ab9" d="M 112.5,98.5 C 112.5,96.8333 112.5,95.1667 112.5,93.5C 110.833,93.5 109.167,93.5 107.5,93.5C 107.5,95.1667 107.5,96.8333 107.5,98.5C 106.539,96.7354 106.205,94.7354 106.5,92.5C 108.833,92.5 111.167,92.5 113.5,92.5C 113.795,94.7354 113.461,96.7354 112.5,98.5 Z"/></g>
<g><path style="opacity:1" fill="#8d8ebe" d="M 126.5,98.5 C 126.5,96.8333 126.5,95.1667 126.5,93.5C 124.833,93.5 123.167,93.5 121.5,93.5C 121.5,95.1667 121.5,96.8333 121.5,98.5C 120.539,96.7354 120.205,94.7354 120.5,92.5C 122.833,92.5 125.167,92.5 127.5,92.5C 127.795,94.7354 127.461,96.7354 126.5,98.5 Z"/></g>
<g><path style="opacity:1" fill="#cccede" d="M 115.5,94.5 C 116.5,94.5 117.5,94.5 118.5,94.5C 118.5,98.1667 118.5,101.833 118.5,105.5C 117.5,105.5 116.5,105.5 115.5,105.5C 115.5,101.833 115.5,98.1667 115.5,94.5 Z"/></g>
<g><path style="opacity:1" fill="#ebebf1" d="M 94.5,118.5 C 94.5,119.5 94.5,120.5 94.5,121.5C 90.4809,121.646 86.4809,121.979 82.5,122.5C 82.5,120.833 82.5,119.167 82.5,117.5C 86.5,117.833 90.5,118.167 94.5,118.5 Z"/></g>
<g><path style="opacity:1" fill="#e9eaf0" d="M 145.5,117.5 C 147.5,117.5 149.5,117.5 151.5,117.5C 151.5,119.5 151.5,121.5 151.5,123.5C 147.09,122.956 142.757,121.956 138.5,120.5C 141.295,120.062 143.628,119.062 145.5,117.5 Z"/></g>
<g><path style="opacity:1" fill="#c5c5d9" d="M 96.5,106.5 C 110.167,106.5 123.833,106.5 137.5,106.5C 137.5,120.167 137.5,133.833 137.5,147.5C 123.833,147.5 110.167,147.5 96.5,147.5C 96.5,133.833 96.5,120.167 96.5,106.5 Z"/></g>
<g><path style="opacity:1" fill="#ebecf0" d="M 138.5,126.5 C 142.226,126.177 145.893,126.511 149.5,127.5C 147.667,127.833 145.833,128.167 144,128.5C 141.705,128.453 139.871,127.787 138.5,126.5 Z"/></g>
<g><path style="opacity:1" fill="#c8c8de" d="M 94.5,125.5 C 94.5,126.5 94.5,127.5 94.5,128.5C 90.8333,128.5 87.1667,128.5 83.5,128.5C 83.5,127.5 83.5,126.5 83.5,125.5C 87.1667,125.5 90.8333,125.5 94.5,125.5 Z"/></g>
<g><path style="opacity:1" fill="#ebebf0" d="M 88.5,132.5 C 90.7354,132.205 92.7354,132.539 94.5,133.5C 94.5,134.167 94.5,134.833 94.5,135.5C 90.5,135.833 86.5,136.167 82.5,136.5C 82.5,134.833 82.5,133.167 82.5,131.5C 84.6208,131.325 86.6208,131.659 88.5,132.5 Z"/></g>
<g><path style="opacity:1" fill="#edeef3" d="M 145.5,131.5 C 147.5,131.5 149.5,131.5 151.5,131.5C 151.5,133.5 151.5,135.5 151.5,137.5C 147.09,136.956 142.757,135.956 138.5,134.5C 141.295,134.062 143.628,133.062 145.5,131.5 Z"/></g>
<g><path style="opacity:1" fill="#8788b8" d="M 88.5,132.5 C 86.6208,131.659 84.6208,131.325 82.5,131.5C 82.5,133.167 82.5,134.833 82.5,136.5C 81.5386,134.735 81.2053,132.735 81.5,130.5C 84.3878,129.99 86.7211,130.656 88.5,132.5 Z"/></g>
<g><path style="opacity:1" fill="#7677b1" d="M 96.5,106.5 C 96.5,120.167 96.5,133.833 96.5,147.5C 95.8333,143.5 95.1667,139.5 94.5,135.5C 94.5,134.833 94.5,134.167 94.5,133.5C 95.8333,131.833 95.8333,130.167 94.5,128.5C 94.5,127.5 94.5,126.5 94.5,125.5C 95.8333,124.167 95.8333,122.833 94.5,121.5C 94.5,120.5 94.5,119.5 94.5,118.5C 95.1667,114.5 95.8333,110.5 96.5,106.5 Z"/></g>
<g><path style="opacity:1" fill="#3c3e94" d="M 97.5,108.5 C 110.167,108.5 122.833,108.5 135.5,108.5C 135.5,121.167 135.5,133.833 135.5,146.5C 122.833,146.5 110.167,146.5 97.5,146.5C 97.5,133.833 97.5,121.167 97.5,108.5 Z"/></g>
<g><path style="opacity:1" fill="#9a9ac5" d="M 102.5,112.5 C 102.5,122.167 102.5,131.833 102.5,141.5C 112.167,141.5 121.833,141.5 131.5,141.5C 121.681,142.494 111.681,142.827 101.5,142.5C 101.173,132.319 101.506,122.319 102.5,112.5 Z"/></g>
<g><path style="opacity:1" fill="#ececf1" d="M 102.5,112.5 C 112.167,112.5 121.833,112.5 131.5,112.5C 131.5,122.167 131.5,131.833 131.5,141.5C 131.5,131.833 131.5,122.167 131.5,112.5C 121.833,112.5 112.167,112.5 102.5,112.5 Z"/></g>
<g><path style="opacity:1" fill="#6a69ab" d="M 126.5,133.5 C 127.5,133.5 128.5,133.5 129.5,133.5C 129.5,134.5 129.5,135.5 129.5,136.5C 128.5,136.5 127.5,136.5 126.5,136.5C 126.5,135.5 126.5,134.5 126.5,133.5 Z"/></g>
<g><path style="opacity:1" fill="#6361a4" d="M 122.5,133.5 C 123.5,133.5 124.5,133.5 125.5,133.5C 125.5,134.5 125.5,135.5 125.5,136.5C 124.5,136.5 123.5,136.5 122.5,136.5C 122.5,135.5 122.5,134.5 122.5,133.5 Z"/></g>
<g><path style="opacity:1" fill="#6261a4" d="M 116.5,133.5 C 117.5,133.5 118.5,133.5 119.5,133.5C 119.5,134.5 119.5,135.5 119.5,136.5C 118.5,136.5 117.5,136.5 116.5,136.5C 116.5,135.5 116.5,134.5 116.5,133.5 Z"/></g>
<g><path style="opacity:1" fill="#6b69a8" d="M 110.5,133.5 C 111.5,133.5 112.5,133.5 113.5,133.5C 113.5,134.5 113.5,135.5 113.5,136.5C 112.5,136.5 111.5,136.5 110.5,136.5C 110.5,135.5 110.5,134.5 110.5,133.5 Z"/></g>
<g><path style="opacity:1" fill="#6664a6" d="M 103.5,133.5 C 104.5,133.5 105.5,133.5 106.5,133.5C 106.5,134.5 106.5,135.5 106.5,136.5C 105.5,136.5 104.5,136.5 103.5,136.5C 103.5,135.5 103.5,134.5 103.5,133.5 Z"/></g>
<g><path style="opacity:1" fill="#625fa5" d="M 124.5,125.5 C 125.5,125.5 126.5,125.5 127.5,125.5C 127.5,126.5 127.5,127.5 127.5,128.5C 126.5,128.5 125.5,128.5 124.5,128.5C 124.5,127.5 124.5,126.5 124.5,125.5 Z"/></g>
<g><path style="opacity:1" fill="#5b59a0" d="M 120.5,125.5 C 121.5,125.5 122.5,125.5 123.5,125.5C 123.5,126.5 123.5,127.5 123.5,128.5C 122.5,128.5 121.5,128.5 120.5,128.5C 120.5,127.5 120.5,126.5 120.5,125.5 Z"/></g>
<g><path style="opacity:1" fill="#5b5aa1" d="M 114.5,125.5 C 115.5,125.5 116.5,125.5 117.5,125.5C 117.5,126.5 117.5,127.5 117.5,128.5C 116.5,128.5 115.5,128.5 114.5,128.5C 114.5,127.5 114.5,126.5 114.5,125.5 Z"/></g>
<g><path style="opacity:1" fill="#6462a6" d="M 110.5,125.5 C 111.5,125.5 112.5,125.5 113.5,125.5C 113.5,126.5 113.5,127.5 113.5,128.5C 112.5,128.5 111.5,128.5 110.5,128.5C 110.5,127.5 110.5,126.5 110.5,125.5 Z"/></g>
<g><path style="opacity:1" fill="#605da3" d="M 103.5,125.5 C 104.5,125.5 105.5,125.5 106.5,125.5C 106.5,126.5 106.5,127.5 106.5,128.5C 105.5,128.5 104.5,128.5 103.5,128.5C 103.5,127.5 103.5,126.5 103.5,125.5 Z"/></g>
<g><path style="opacity:1" fill="#56579e" d="M 122.5,117.5 C 123.5,117.5 124.5,117.5 125.5,117.5C 125.5,118.5 125.5,119.5 125.5,120.5C 124.5,120.5 123.5,120.5 122.5,120.5C 122.5,119.5 122.5,118.5 122.5,117.5 Z"/></g>
<g><path style="opacity:1" fill="#58579e" d="M 115.5,117.5 C 116.5,117.5 117.5,117.5 118.5,117.5C 118.5,118.5 118.5,119.5 118.5,120.5C 117.5,120.5 116.5,120.5 115.5,120.5C 115.5,119.5 115.5,118.5 115.5,117.5 Z"/></g>
<g><path style="opacity:1" fill="#4d4d9a" d="M 110.5,117.5 C 111.5,117.5 112.5,117.5 113.5,117.5C 113.5,118.5 113.5,119.5 113.5,120.5C 112.5,120.5 111.5,120.5 110.5,120.5C 110.5,119.5 110.5,118.5 110.5,117.5 Z"/></g>
<g><path style="opacity:1" fill="#424295" d="M 104.5,118.5 C 106.337,118.639 106.67,119.306 105.5,120.5C 104.702,120.043 104.369,119.376 104.5,118.5 Z"/></g>
<g><path style="opacity:1" fill="#7e7fb2" d="M 96.5,147.5 C 110.167,147.5 123.833,147.5 137.5,147.5C 133.167,148.167 128.833,148.833 124.5,149.5C 123.833,149.5 123.167,149.5 122.5,149.5C 120.833,148.167 119.167,148.167 117.5,149.5C 116.833,149.5 116.167,149.5 115.5,149.5C 113.833,148.167 112.167,148.167 110.5,149.5C 109.167,151.833 107.833,154.167 106.5,156.5C 107.388,153.946 107.721,151.279 107.5,148.5C 103.629,148.815 99.9619,148.482 96.5,147.5 Z"/></g>
<g><path style="opacity:1" fill="#f0f0f3" d="M 115.5,149.5 C 116.167,149.5 116.833,149.5 117.5,149.5C 116.833,164.167 116.167,164.167 115.5,149.5 Z"/></g>
<g><path style="opacity:1" fill="#8383b3" d="M 122.5,149.5 C 123.01,152.388 122.344,154.721 120.5,156.5C 121.065,154.048 121.732,151.715 122.5,149.5 Z"/></g>
<g><path style="opacity:1" fill="#eff0f2" d="M 110.5,149.5 C 111.167,153.5 111.833,157.5 112.5,161.5C 110.5,161.5 108.5,161.5 106.5,161.5C 106.5,159.833 106.5,158.167 106.5,156.5C 107.833,154.167 109.167,151.833 110.5,149.5 Z"/></g>
<g><path style="opacity:1" fill="#f6f7f8" d="M 122.5,149.5 C 123.167,149.5 123.833,149.5 124.5,149.5C 124.808,153.573 125.475,157.573 126.5,161.5C 124.5,161.5 122.5,161.5 120.5,161.5C 120.5,159.833 120.5,158.167 120.5,156.5C 122.344,154.721 123.01,152.388 122.5,149.5 Z"/></g>
</svg>
