<?xml version="1.0" encoding="UTF-8"?>
<!DOCTYPE svg PUBLIC "-//W3C//DTD SVG 1.1//EN" "http://www.w3.org/Graphics/SVG/1.1/DTD/svg11.dtd">
<svg xmlns="http://www.w3.org/2000/svg" version="1.1" width="230px" height="184px" style="shape-rendering:geometricPrecision; text-rendering:geometricPrecision; image-rendering:optimizeQuality; fill-rule:evenodd; clip-rule:evenodd" xmlns:xlink="http://www.w3.org/1999/xlink">
<g><path style="opacity:1" fill="#fefefe" d="M -0.5,-0.5 C 76.1667,-0.5 152.833,-0.5 229.5,-0.5C 229.5,60.8333 229.5,122.167 229.5,183.5C 152.833,183.5 76.1667,183.5 -0.5,183.5C -0.5,122.167 -0.5,60.8333 -0.5,-0.5 Z"/></g>
<g><path style="opacity:1" fill="#3a3c93" d="M 95.5,50.5 C 95.5,58.5 95.5,66.5 95.5,74.5C 78.5,74.5 61.5,74.5 44.5,74.5C 44.5,55.1667 44.5,35.8333 44.5,16.5C 51.1667,16.5 57.8333,16.5 64.5,16.5C 64.5,27.8333 64.5,39.1667 64.5,50.5C 74.8333,50.5 85.1667,50.5 95.5,50.5 Z"/></g>
<g><path style="opacity:1" fill="#3a3c93" d="M 143.5,16.5 C 143.5,20.8333 143.5,25.1667 143.5,29.5C 146.833,29.5 150.167,29.5 153.5,29.5C 153.5,25.1667 153.5,20.8333 153.5,16.5C 157.167,16.5 160.833,16.5 164.5,16.5C 164.5,20.5 164.5,24.5 164.5,28.5C 167.962,29.4816 171.629,29.815 175.5,29.5C 175.5,25.1667 175.5,20.8333 175.5,16.5C 178.833,16.5 182.167,16.5 185.5,16.5C 185.5,35.8333 185.5,55.1667 185.5,74.5C 178.5,74.5 171.5,74.5 164.5,74.5C 164.5,70.5 164.5,66.5 164.5,62.5C 160.5,62.5 156.5,62.5 152.5,62.5C 152.5,66.5 152.5,70.5 152.5,74.5C 146.5,74.5 140.5,74.5 134.5,74.5C 134.5,55.1667 134.5,35.8333 134.5,16.5C 137.5,16.5 140.5,16.5 143.5,16.5 Z"/></g>
<g><path style="opacity:1" fill="#898ab7" d="M 143.5,16.5 C 140.5,16.5 137.5,16.5 134.5,16.5C 134.5,35.8333 134.5,55.1667 134.5,74.5C 133.503,55.0071 133.17,35.3404 133.5,15.5C 137.042,15.1872 140.375,15.5206 143.5,16.5 Z"/></g>
<g><path style="opacity:1" fill="#8685b8" d="M 95.5,50.5 C 85.1667,50.5 74.8333,50.5 64.5,50.5C 64.5,39.1667 64.5,27.8333 64.5,16.5C 57.8333,16.5 51.1667,16.5 44.5,16.5C 44.5,35.8333 44.5,55.1667 44.5,74.5C 43.5029,55.0071 43.1696,35.3404 43.5,15.5C 50.8333,15.5 58.1667,15.5 65.5,15.5C 65.5,26.8333 65.5,38.1667 65.5,49.5C 75.6806,49.1726 85.6806,49.506 95.5,50.5 Z"/></g>
<g><path style="opacity:1" fill="#a2a2c6" d="M 164.5,16.5 C 160.833,16.5 157.167,16.5 153.5,16.5C 153.5,20.8333 153.5,25.1667 153.5,29.5C 150.167,29.5 146.833,29.5 143.5,29.5C 143.5,25.1667 143.5,20.8333 143.5,16.5C 144.483,20.2984 144.817,24.2984 144.5,28.5C 147.167,28.5 149.833,28.5 152.5,28.5C 152.5,24.1667 152.5,19.8333 152.5,15.5C 156.702,15.1832 160.702,15.5166 164.5,16.5 Z"/></g>
<g><path style="opacity:1" fill="#a0a1c9" d="M 175.5,16.5 C 175.5,20.8333 175.5,25.1667 175.5,29.5C 171.629,29.815 167.962,29.4816 164.5,28.5C 167.833,28.5 171.167,28.5 174.5,28.5C 174.183,24.2984 174.517,20.2984 175.5,16.5 Z"/></g>
<g><path style="opacity:1" fill="#d3d6e2" d="M 164.5,74.5 C 163.518,71.0381 163.185,67.3714 163.5,63.5C 160.167,63.5 156.833,63.5 153.5,63.5C 153.815,67.3714 153.482,71.0381 152.5,74.5C 152.5,70.5 152.5,66.5 152.5,62.5C 156.5,62.5 160.5,62.5 164.5,62.5C 164.5,66.5 164.5,70.5 164.5,74.5 Z"/></g>
<g><path style="opacity:1" fill="#8483b7" d="M 185.5,87.5 C 138.5,87.5 91.5,87.5 44.5,87.5C 44.5,92.5 44.5,97.5 44.5,102.5C 43.5119,97.3595 43.1786,92.0262 43.5,86.5C 91.0029,86.1679 138.336,86.5012 185.5,87.5 Z"/></g>
<g><path style="opacity:1" fill="#3b3c93" d="M 185.5,87.5 C 188.642,117.038 177.976,139.871 153.5,156C 141.249,162.624 128.582,168.457 115.5,173.5C 98.0389,167.103 81.7056,158.603 66.5,148C 52.6064,136.045 45.273,120.878 44.5,102.5C 44.5,97.5 44.5,92.5 44.5,87.5C 91.5,87.5 138.5,87.5 185.5,87.5 Z"/></g>
<g><path style="opacity:1" fill="#e9e9f0" d="M 112.5,100.5 C 108.584,105.996 104.918,111.663 101.5,117.5C 98.4816,117.665 95.4816,117.498 92.5,117C 99.0094,111.323 105.343,105.489 111.5,99.5C 112.107,99.6236 112.44,99.9569 112.5,100.5 Z"/></g>
<g><path style="opacity:1" fill="#eeeef3" d="M 123.5,101.5 C 128.979,106.735 134.646,111.735 140.5,116.5C 137.696,117.638 134.696,117.805 131.5,117C 128.792,112.416 125.958,107.916 123,103.5C 122.308,102.563 122.475,101.897 123.5,101.5 Z"/></g>
<g><path style="opacity:1" fill="#e2e3eb" d="M 119.5,102.5 C 121.421,107.51 123.755,112.343 126.5,117C 120.141,117.831 113.807,117.664 107.5,116.5C 110.434,111.632 113.1,106.632 115.5,101.5C 115.783,100.711 116.283,100.044 117,99.5C 117.852,100.571 118.685,101.571 119.5,102.5 Z"/></g>
<g><path style="opacity:1" fill="#4b4a9a" d="M 123.5,101.5 C 122.475,101.897 122.308,102.563 123,103.5C 125.958,107.916 128.792,112.416 131.5,117C 134.696,117.805 137.696,117.638 140.5,116.5C 141.692,117.566 141.359,118.399 139.5,119C 140.793,119.49 142.127,119.657 143.5,119.5C 143.737,120.791 143.404,121.791 142.5,122.5C 138.285,120.564 133.619,119.897 128.5,120.5C 125.441,132.398 121.607,144.065 117,155.5C 112.568,144.295 108.401,132.962 104.5,121.5C 99.8804,120.507 95.2137,120.173 90.5,120.5C 95.3165,119.674 100.316,119.174 105.5,119C 104.255,118.209 102.922,117.709 101.5,117.5C 104.918,111.663 108.584,105.996 112.5,100.5C 113.391,101.11 114.391,101.443 115.5,101.5C 113.1,106.632 110.434,111.632 107.5,116.5C 113.807,117.664 120.141,117.831 126.5,117C 123.755,112.343 121.421,107.51 119.5,102.5C 120.376,102.631 121.043,102.298 121.5,101.5C 120.494,100.604 120.494,99.9377 121.5,99.5C 122.522,99.8555 123.189,100.522 123.5,101.5 Z"/></g>
<g><path style="opacity:1" fill="#474798" d="M 116.5,104.5 C 118.977,107.438 120.977,110.771 122.5,114.5C 118.893,115.489 115.226,115.823 111.5,115.5C 112.681,111.64 114.348,107.973 116.5,104.5 Z"/></g>
<g><path style="opacity:1" fill="#f5f5f7" d="M 90.5,120.5 C 95.2137,120.173 99.8804,120.507 104.5,121.5C 108.401,132.962 112.568,144.295 117,155.5C 121.607,144.065 125.441,132.398 128.5,120.5C 133.619,119.897 138.285,120.564 142.5,122.5C 135.442,132.932 128.608,143.599 122,154.5C 118.994,158.073 115.661,158.406 112,155.5C 104.811,143.778 97.6445,132.111 90.5,120.5 Z"/></g>
<g><path style="opacity:1" fill="#f8f8f9" d="M 107.5,120.5 C 113.868,120.17 120.202,120.504 126.5,121.5C 123.038,130.387 119.871,139.387 117,148.5C 113.83,139.147 110.663,129.814 107.5,120.5 Z"/></g>
</svg>
