<?xml version="1.0" encoding="UTF-8"?>
<!DOCTYPE svg PUBLIC "-//W3C//DTD SVG 1.1//EN" "http://www.w3.org/Graphics/SVG/1.1/DTD/svg11.dtd">
<svg xmlns="http://www.w3.org/2000/svg" version="1.1" width="230px" height="184px" style="shape-rendering:geometricPrecision; text-rendering:geometricPrecision; image-rendering:optimizeQuality; fill-rule:evenodd; clip-rule:evenodd" xmlns:xlink="http://www.w3.org/1999/xlink">
<g><path style="opacity:1" fill="#fefefe" d="M -0.5,-0.5 C 76.1667,-0.5 152.833,-0.5 229.5,-0.5C 229.5,60.8333 229.5,122.167 229.5,183.5C 152.833,183.5 76.1667,183.5 -0.5,183.5C -0.5,122.167 -0.5,60.8333 -0.5,-0.5 Z"/></g>
<g><path style="opacity:1" fill="#3a3c93" d="M 134.5,17.5 C 137.5,17.5 140.5,17.5 143.5,17.5C 143.183,21.7016 143.517,25.7016 144.5,29.5C 147.287,30.4767 150.287,30.81 153.5,30.5C 153.5,26.1667 153.5,21.8333 153.5,17.5C 157.167,17.5 160.833,17.5 164.5,17.5C 164.5,21.5 164.5,25.5 164.5,29.5C 167.962,30.4816 171.629,30.815 175.5,30.5C 175.5,26.1667 175.5,21.8333 175.5,17.5C 178.833,17.5 182.167,17.5 185.5,17.5C 185.5,36.8333 185.5,56.1667 185.5,75.5C 178.5,75.5 171.5,75.5 164.5,75.5C 164.5,71.5 164.5,67.5 164.5,63.5C 160.5,63.5 156.5,63.5 152.5,63.5C 152.5,67.1667 152.5,70.8333 152.5,74.5C 146.5,74.5 140.5,74.5 134.5,74.5C 134.5,55.5 134.5,36.5 134.5,17.5 Z"/></g>
<g><path style="opacity:1" fill="#8a8abb" d="M 134.5,17.5 C 137.625,16.5206 140.958,16.1872 144.5,16.5C 144.5,20.8333 144.5,25.1667 144.5,29.5C 143.517,25.7016 143.183,21.7016 143.5,17.5C 140.5,17.5 137.5,17.5 134.5,17.5 Z"/></g>
<g><path style="opacity:1" fill="#9597c0" d="M 185.5,17.5 C 182.167,17.5 178.833,17.5 175.5,17.5C 175.5,21.8333 175.5,26.1667 175.5,30.5C 171.629,30.815 167.962,30.4816 164.5,29.5C 167.833,29.5 171.167,29.5 174.5,29.5C 174.5,25.1667 174.5,20.8333 174.5,16.5C 178.371,16.185 182.038,16.5184 185.5,17.5 Z"/></g>
<g><path style="opacity:1" fill="#9494bd" d="M 153.5,17.5 C 153.5,21.8333 153.5,26.1667 153.5,30.5C 150.287,30.81 147.287,30.4767 144.5,29.5C 147.167,29.5 149.833,29.5 152.5,29.5C 152.183,25.2984 152.517,21.2984 153.5,17.5 Z"/></g>
<g><path style="opacity:1" fill="#7c7db4" d="M 44.5,16.5 C 51.8333,16.5 59.1667,16.5 66.5,16.5C 66.5,27.8333 66.5,39.1667 66.5,50.5C 76.5,50.5 86.5,50.5 96.5,50.5C 96.5,58.8333 96.5,67.1667 96.5,75.5C 79.1667,75.5 61.8333,75.5 44.5,75.5C 44.5,55.8333 44.5,36.1667 44.5,16.5 Z"/></g>
<g><path style="opacity:1" fill="#393b92" d="M 45.5,17.5 C 52.1667,17.5 58.8333,17.5 65.5,17.5C 65.5,28.8333 65.5,40.1667 65.5,51.5C 75.5,51.5 85.5,51.5 95.5,51.5C 95.5,59.1667 95.5,66.8333 95.5,74.5C 78.8333,74.5 62.1667,74.5 45.5,74.5C 45.5,55.5 45.5,36.5 45.5,17.5 Z"/></g>
<g><path style="opacity:1" fill="#8687b9" d="M 134.5,17.5 C 134.5,36.5 134.5,55.5 134.5,74.5C 140.5,74.5 146.5,74.5 152.5,74.5C 146.355,75.4902 140.022,75.8235 133.5,75.5C 133.17,55.9928 133.503,36.6595 134.5,17.5 Z"/></g>
<g><path style="opacity:1" fill="#3b3d93" d="M 44.5,87.5 C 91.5,87.5 138.5,87.5 185.5,87.5C 189.086,117.821 178.086,140.987 152.5,157C 140.739,163.473 128.572,168.973 116,173.5C 94.507,166.594 75.507,155.594 59,140.5C 47.5855,124.738 42.7522,107.072 44.5,87.5 Z"/></g>
<g><path style="opacity:1" fill="#e6e6ee" d="M 120.5,93.5 C 123.723,95.3642 126.89,97.3642 130,99.5C 134.362,116.417 127.862,123.583 110.5,121C 108.083,119.374 105.583,117.874 103,116.5C 102.333,110.833 102.333,105.167 103,99.5C 105.586,97.4552 108.42,95.7885 111.5,94.5C 112.328,98.7956 112.828,103.129 113,107.5C 115.244,109.994 117.577,109.994 120,107.5C 120.499,102.845 120.666,98.1785 120.5,93.5 Z"/></g>
<g><path style="opacity:1" fill="#404195" d="M 109.5,97.5 C 110.166,101.353 110.833,105.353 111.5,109.5C 113.332,110.248 114.999,111.248 116.5,112.5C 118.001,111.248 119.668,110.248 121.5,109.5C 122.327,105.541 122.827,101.541 123,97.5C 124.586,98.376 126.086,99.376 127.5,100.5C 128.833,105.5 128.833,110.5 127.5,115.5C 120.167,120.833 112.833,120.833 105.5,115.5C 104.167,110.5 104.167,105.5 105.5,100.5C 106.901,99.4793 108.235,98.4793 109.5,97.5 Z"/></g>
<g><path style="opacity:1" fill="#fafafb" d="M 113.5,125.5 C 113.5,128.167 113.5,130.833 113.5,133.5C 111.167,133.5 108.833,133.5 106.5,133.5C 106.5,130.833 106.5,128.167 106.5,125.5C 108.833,125.5 111.167,125.5 113.5,125.5 Z"/></g>
<g><path style="opacity:1" fill="#9797c0" d="M 126.5,125.5 C 127.477,128.287 127.81,131.287 127.5,134.5C 124.5,134.5 121.5,134.5 118.5,134.5C 118.5,131.167 118.5,127.833 118.5,124.5C 121.385,124.194 124.052,124.527 126.5,125.5 Z"/></g>
<g><path style="opacity:1" fill="#fcfcfd" d="M 126.5,125.5 C 126.5,128.167 126.5,130.833 126.5,133.5C 124.167,133.5 121.833,133.5 119.5,133.5C 119.5,130.833 119.5,128.167 119.5,125.5C 121.833,125.5 124.167,125.5 126.5,125.5 Z"/></g>
<g><path style="opacity:1" fill="#c5c7dd" d="M 113.5,125.5 C 114.477,128.287 114.81,131.287 114.5,134.5C 111.615,134.806 108.948,134.473 106.5,133.5C 108.833,133.5 111.167,133.5 113.5,133.5C 113.5,130.833 113.5,128.167 113.5,125.5 Z"/></g>
<g><path style="opacity:1" fill="#fbfbfb" d="M 106.5,139.5 C 108.833,139.5 111.167,139.5 113.5,139.5C 113.5,142.167 113.5,144.833 113.5,147.5C 111.167,147.5 108.833,147.5 106.5,147.5C 106.5,144.833 106.5,142.167 106.5,139.5 Z"/></g>
<g><path style="opacity:1" fill="#9c9cc1" d="M 126.5,139.5 C 124.167,139.5 121.833,139.5 119.5,139.5C 119.5,142.167 119.5,144.833 119.5,147.5C 121.833,147.5 124.167,147.5 126.5,147.5C 124.052,148.473 121.385,148.806 118.5,148.5C 118.5,145.167 118.5,141.833 118.5,138.5C 121.385,138.194 124.052,138.527 126.5,139.5 Z"/></g>
<g><path style="opacity:1" fill="#fdfdfd" d="M 126.5,139.5 C 126.5,142.167 126.5,144.833 126.5,147.5C 124.167,147.5 121.833,147.5 119.5,147.5C 119.5,144.833 119.5,142.167 119.5,139.5C 121.833,139.5 124.167,139.5 126.5,139.5 Z"/></g>
<g><path style="opacity:1" fill="#b1b3ce" d="M 106.5,139.5 C 108.948,138.527 111.615,138.194 114.5,138.5C 114.5,141.833 114.5,145.167 114.5,148.5C 111.615,148.806 108.948,148.473 106.5,147.5C 108.833,147.5 111.167,147.5 113.5,147.5C 113.5,144.833 113.5,142.167 113.5,139.5C 111.167,139.5 108.833,139.5 106.5,139.5 Z"/></g>
<g><path style="opacity:1" fill="#f2f2f5" d="M 106.5,152.5 C 109.167,152.5 111.833,152.5 114.5,152.5C 114.5,155.5 114.5,158.5 114.5,161.5C 111.833,161.5 109.167,161.5 106.5,161.5C 106.5,158.5 106.5,155.5 106.5,152.5 Z"/></g>
<g><path style="opacity:1" fill="#f3f3f6" d="M 118.5,152.5 C 121.167,152.5 123.833,152.5 126.5,152.5C 126.5,155.5 126.5,158.5 126.5,161.5C 123.833,161.5 121.167,161.5 118.5,161.5C 118.5,158.5 118.5,155.5 118.5,152.5 Z"/></g>
</svg>
