<?xml version="1.0" encoding="UTF-8"?>
<!DOCTYPE svg PUBLIC "-//W3C//DTD SVG 1.1//EN" "http://www.w3.org/Graphics/SVG/1.1/DTD/svg11.dtd">
<svg xmlns="http://www.w3.org/2000/svg" version="1.1" width="230px" height="184px" style="shape-rendering:geometricPrecision; text-rendering:geometricPrecision; image-rendering:optimizeQuality; fill-rule:evenodd; clip-rule:evenodd" xmlns:xlink="http://www.w3.org/1999/xlink">
<g><path style="opacity:1" fill="#fefefe" d="M -0.5,-0.5 C 76.1667,-0.5 152.833,-0.5 229.5,-0.5C 229.5,60.8333 229.5,122.167 229.5,183.5C 152.833,183.5 76.1667,183.5 -0.5,183.5C -0.5,122.167 -0.5,60.8333 -0.5,-0.5 Z"/></g>
<g><path style="opacity:1" fill="#3b3c93" d="M 63.5,14.5 C 63.5,25.8333 63.5,37.1667 63.5,48.5C 73.5,48.5 83.5,48.5 93.5,48.5C 93.5,56.5 93.5,64.5 93.5,72.5C 76.5,72.5 59.5,72.5 42.5,72.5C 42.5,53.1667 42.5,33.8333 42.5,14.5C 49.5,14.5 56.5,14.5 63.5,14.5 Z"/></g>
<g><path style="opacity:1" fill="#6868aa" d="M 133.5,14.5 C 133.5,33.8333 133.5,53.1667 133.5,72.5C 139.5,72.5 145.5,72.5 151.5,72.5C 151.5,72.8333 151.5,73.1667 151.5,73.5C 145.167,73.5 138.833,73.5 132.5,73.5C 132.17,53.6596 132.503,33.9929 133.5,14.5 Z"/></g>
<g><path style="opacity:1" fill="#3a3c93" d="M 133.5,14.5 C 136.5,14.5 139.5,14.5 142.5,14.5C 142.5,18.8333 142.5,23.1667 142.5,27.5C 145.833,27.5 149.167,27.5 152.5,27.5C 152.5,23.1667 152.5,18.8333 152.5,14.5C 156.167,14.5 159.833,14.5 163.5,14.5C 163.5,18.8333 163.5,23.1667 163.5,27.5C 167.167,27.5 170.833,27.5 174.5,27.5C 174.5,23.1667 174.5,18.8333 174.5,14.5C 177.833,14.5 181.167,14.5 184.5,14.5C 184.5,33.8333 184.5,53.1667 184.5,72.5C 177.5,72.5 170.5,72.5 163.5,72.5C 163.5,68.5 163.5,64.5 163.5,60.5C 159.5,60.5 155.5,60.5 151.5,60.5C 151.5,64.5 151.5,68.5 151.5,72.5C 145.5,72.5 139.5,72.5 133.5,72.5C 133.5,53.1667 133.5,33.8333 133.5,14.5 Z"/></g>
<g><path style="opacity:1" fill="#a1a3c6" d="M 63.5,14.5 C 56.5,14.5 49.5,14.5 42.5,14.5C 42.5,33.8333 42.5,53.1667 42.5,72.5C 42.5,72.8333 42.5,73.1667 42.5,73.5C 41.5029,53.6736 41.1695,33.6736 41.5,13.5C 49.0191,13.175 56.3524,13.5084 63.5,14.5 Z"/></g>
<g><path style="opacity:1" fill="#b4b5d3" d="M 163.5,14.5 C 159.833,14.5 156.167,14.5 152.5,14.5C 152.5,18.8333 152.5,23.1667 152.5,27.5C 149.167,27.5 145.833,27.5 142.5,27.5C 142.5,23.1667 142.5,18.8333 142.5,14.5C 143.483,18.2984 143.817,22.2984 143.5,26.5C 146.167,26.5 148.833,26.5 151.5,26.5C 151.5,22.1667 151.5,17.8333 151.5,13.5C 155.702,13.1832 159.702,13.5166 163.5,14.5 Z"/></g>
<g><path style="opacity:1" fill="#babbd6" d="M 163.5,14.5 C 164.483,18.2984 164.817,22.2984 164.5,26.5C 167.5,26.5 170.5,26.5 173.5,26.5C 173.183,22.2984 173.517,18.2984 174.5,14.5C 174.5,18.8333 174.5,23.1667 174.5,27.5C 170.833,27.5 167.167,27.5 163.5,27.5C 163.5,23.1667 163.5,18.8333 163.5,14.5 Z"/></g>
<g><path style="opacity:1" fill="#bcbcd6" d="M 163.5,72.5 C 163.5,72.8333 163.5,73.1667 163.5,73.5C 162.517,69.7016 162.183,65.7016 162.5,61.5C 159.167,61.5 155.833,61.5 152.5,61.5C 152.817,65.7016 152.483,69.7016 151.5,73.5C 151.5,73.1667 151.5,72.8333 151.5,72.5C 151.5,68.5 151.5,64.5 151.5,60.5C 155.5,60.5 159.5,60.5 163.5,60.5C 163.5,64.5 163.5,68.5 163.5,72.5 Z"/></g>
<g><path style="opacity:1" fill="#7979b2" d="M 93.5,48.5 C 94.4927,56.6499 94.8261,64.9832 94.5,73.5C 77.1667,73.5 59.8333,73.5 42.5,73.5C 42.5,73.1667 42.5,72.8333 42.5,72.5C 59.5,72.5 76.5,72.5 93.5,72.5C 93.5,64.5 93.5,56.5 93.5,48.5 Z"/></g>
<g><path style="opacity:1" fill="#8484b6" d="M 184.5,14.5 C 185.497,33.9929 185.83,53.6596 185.5,73.5C 178.167,73.5 170.833,73.5 163.5,73.5C 163.5,73.1667 163.5,72.8333 163.5,72.5C 170.5,72.5 177.5,72.5 184.5,72.5C 184.5,53.1667 184.5,33.8333 184.5,14.5 Z"/></g>
<g><path style="opacity:1" fill="#3c3e94" d="M 183.5,112.5 C 182.076,114.515 181.41,116.848 181.5,119.5C 175.735,136.104 165.069,148.604 149.5,157C 139.074,162.547 128.408,167.547 117.5,172C 115.5,172.667 113.5,172.667 111.5,172C 98.1015,166.467 85.1015,160.134 72.5,153C 49.4014,136.603 39.0681,114.103 41.5,85.5C 89.1667,85.5 136.833,85.5 184.5,85.5C 184.68,94.5281 184.347,103.528 183.5,112.5 Z"/></g>
<g><path style="opacity:1" fill="#ededf2" d="M 124.5,104.5 C 122.824,103.817 122.157,102.483 122.5,100.5C 117.167,100.5 111.833,100.5 106.5,100.5C 106.263,101.791 106.596,102.791 107.5,103.5C 108.749,107.404 109.749,111.404 110.5,115.5C 110.315,116.584 109.982,117.584 109.5,118.5C 104.85,116.371 100.85,113.205 97.5,109C 95.8425,108.275 94.8425,108.775 94.5,110.5C 94.5,111.167 94.1667,111.5 93.5,111.5C 93.5,110.167 93.5,108.833 93.5,107.5C 95.1992,107.34 96.8659,107.506 98.5,108C 101.333,110.833 104.167,113.667 107,116.5C 106.643,110.728 105.476,105.062 103.5,99.5C 110.803,98.5027 118.137,98.1694 125.5,98.5C 125.167,100.5 124.833,102.5 124.5,104.5 Z"/></g>
<g><path style="opacity:1" fill="#434396" d="M 124.5,120.5 C 123.833,120.833 123.167,121.167 122.5,121.5C 118.911,117.62 114.578,116.62 109.5,118.5C 109.982,117.584 110.315,116.584 110.5,115.5C 109.749,111.404 108.749,107.404 107.5,103.5C 111.715,101.564 116.381,100.897 121.5,101.5C 120.817,105.88 119.817,110.213 118.5,114.5C 118.553,117.338 119.886,118.505 122.5,118C 125.85,113.795 129.85,110.629 134.5,108.5C 131.647,112.855 128.314,116.855 124.5,120.5 Z"/></g>
<g><path style="opacity:1" fill="#afafcf" d="M 94.5,110.5 C 98.1667,113.5 101.5,116.833 104.5,120.5C 102.716,121.72 101.05,121.72 99.5,120.5C 100.239,120.631 100.906,120.464 101.5,120C 98.6286,117.297 95.9619,114.464 93.5,111.5C 94.1667,111.5 94.5,111.167 94.5,110.5 Z"/></g>
<g><path style="opacity:1" fill="#b1b1cd" d="M 183.5,112.5 C 183.59,115.152 182.924,117.485 181.5,119.5C 181.41,116.848 182.076,114.515 183.5,112.5 Z"/></g>
<g><path style="opacity:1" fill="#51509c" d="M 109.5,118.5 C 107.614,119.93 105.947,121.597 104.5,123.5C 104.5,122.5 104.5,121.5 104.5,120.5C 101.5,116.833 98.1667,113.5 94.5,110.5C 94.8425,108.775 95.8425,108.275 97.5,109C 100.85,113.205 104.85,116.371 109.5,118.5 Z"/></g>
<g><path style="opacity:1" fill="#e3e3ec" d="M 124.5,104.5 C 123.313,108.5 122.479,112.5 122,116.5C 124.833,113.667 127.667,110.833 130.5,108C 132.134,107.506 133.801,107.34 135.5,107.5C 135.66,109.199 135.494,110.866 135,112.5C 132.167,115.333 129.333,118.167 126.5,121C 132.296,119.275 138.296,118.108 144.5,117.5C 144.5,124.833 144.5,132.167 144.5,139.5C 138.473,138.128 132.473,136.961 126.5,136C 128.979,136.879 130.979,138.379 132.5,140.5C 132.291,141.086 131.957,141.586 131.5,142C 134.875,143.029 136.042,145.196 135,148.5C 131.903,149.873 129.737,148.873 128.5,145.5C 127.549,146.326 126.549,146.492 125.5,146C 124.113,143.955 122.946,141.788 122,139.5C 122.827,145.838 123.993,152.171 125.5,158.5C 118.167,158.5 110.833,158.5 103.5,158.5C 104.625,152.458 105.958,146.458 107.5,140.5C 108.557,139.794 108.224,139.461 106.5,139.5C 106.5,139.167 106.5,138.833 106.5,138.5C 108.38,138.229 109.713,138.896 110.5,140.5C 109.289,145.464 108.289,150.464 107.5,155.5C 112.167,155.5 116.833,155.5 121.5,155.5C 120.709,150.46 119.709,145.46 118.5,140.5C 119.287,138.896 120.62,138.229 122.5,138.5C 125.238,139.663 126.238,141.497 125.5,144C 126.549,144.492 127.549,144.326 128.5,143.5C 130.167,144.5 131.5,145.833 132.5,147.5C 132.833,147.167 133.167,146.833 133.5,146.5C 132.352,144.851 131.019,143.351 129.5,142C 130.833,140.16 130.666,139.66 129,140.5C 126.418,138.772 124.918,136.439 124.5,133.5C 125.391,132.89 126.391,132.557 127.5,132.5C 132.078,133.915 136.745,134.915 141.5,135.5C 141.5,130.833 141.5,126.167 141.5,121.5C 136.36,121.861 131.36,122.861 126.5,124.5C 125.326,123.486 124.66,122.153 124.5,120.5C 128.314,116.855 131.647,112.855 134.5,108.5C 129.85,110.629 125.85,113.795 122.5,118C 119.886,118.505 118.553,117.338 118.5,114.5C 119.817,110.213 120.817,105.88 121.5,101.5C 116.381,100.897 111.715,101.564 107.5,103.5C 106.596,102.791 106.263,101.791 106.5,100.5C 111.833,100.5 117.167,100.5 122.5,100.5C 122.157,102.483 122.824,103.817 124.5,104.5 Z"/></g>
<g><path style="opacity:1" fill="#9291bd" d="M 124.5,120.5 C 124.66,122.153 125.326,123.486 126.5,124.5C 124.94,127.459 125.273,130.126 127.5,132.5C 126.391,132.557 125.391,132.89 124.5,133.5C 125.01,129.187 124.343,125.187 122.5,121.5C 123.167,121.167 123.833,120.833 124.5,120.5 Z"/></g>
<g><path style="opacity:1" fill="#3c3d93" d="M 102.5,124.5 C 104.06,127.459 103.727,130.126 101.5,132.5C 97.2157,133.604 92.8824,134.604 88.5,135.5C 87.5067,130.88 87.1734,126.214 87.5,121.5C 92.5322,122.341 97.5322,123.341 102.5,124.5 Z"/></g>
<g><path style="opacity:1" fill="#f5f6f6" d="M 122.5,121.5 C 124.343,125.187 125.01,129.187 124.5,133.5C 123.272,134.306 122.272,135.306 121.5,136.5C 116.833,139.167 112.167,139.167 107.5,136.5C 106.728,135.306 105.728,134.306 104.5,133.5C 104.5,130.167 104.5,126.833 104.5,123.5C 105.947,121.597 107.614,119.93 109.5,118.5C 114.578,116.62 118.911,117.62 122.5,121.5 Z"/></g>
<g><path style="opacity:1" fill="#adadcb" d="M 112.5,129.5 C 112.565,129.938 112.399,130.272 112,130.5C 111.549,128.071 110.715,127.904 109.5,130C 112.106,131.65 112.106,133.15 109.5,134.5C 108.189,130.317 108.189,125.984 109.5,121.5C 111.984,123.536 112.984,126.202 112.5,129.5 Z"/></g>
<g><path style="opacity:1" fill="#3e3f94" d="M 127.5,132.5 C 125.273,130.126 124.94,127.459 126.5,124.5C 131.36,122.861 136.36,121.861 141.5,121.5C 141.5,126.167 141.5,130.833 141.5,135.5C 136.745,134.915 132.078,133.915 127.5,132.5 Z"/></g>
<g><path style="opacity:1" fill="#b1b2cd" d="M 119.5,134.5 C 116.894,133.15 116.894,131.65 119.5,130C 118.285,127.904 117.451,128.071 117,130.5C 116.283,129.956 115.783,129.289 115.5,128.5C 116.103,125.816 117.436,123.482 119.5,121.5C 120.811,125.984 120.811,130.317 119.5,134.5 Z"/></g>
<g><path style="opacity:1" fill="#8080b2" d="M 115.5,128.5 C 115.783,129.289 116.283,129.956 117,130.5C 117.451,128.071 118.285,127.904 119.5,130C 116.894,131.65 116.894,133.15 119.5,134.5C 117.606,135.048 115.94,136.048 114.5,137.5C 113.06,136.048 111.394,135.048 109.5,134.5C 112.106,133.15 112.106,131.65 109.5,130C 110.715,127.904 111.549,128.071 112,130.5C 112.399,130.272 112.565,129.938 112.5,129.5C 113.166,126.311 113.833,122.977 114.5,119.5C 115.484,122.428 115.817,125.428 115.5,128.5 Z"/></g>
<g><path style="opacity:1" fill="#ebebf1" d="M 99.5,120.5 C 101.05,121.72 102.716,121.72 104.5,120.5C 104.5,121.5 104.5,122.5 104.5,123.5C 103.833,123.833 103.167,124.167 102.5,124.5C 97.5322,123.341 92.5322,122.341 87.5,121.5C 87.1734,126.214 87.5067,130.88 88.5,135.5C 92.8824,134.604 97.2157,133.604 101.5,132.5C 102.376,132.369 103.043,132.702 103.5,133.5C 102.757,134.182 102.091,134.849 101.5,135.5C 95.8373,136.832 90.1706,138.165 84.5,139.5C 84.5,132.167 84.5,124.833 84.5,117.5C 89.4567,118.605 94.4567,119.605 99.5,120.5 Z"/></g>
<g><path style="opacity:1" fill="#4d4c9b" d="M 104.5,133.5 C 105.728,134.306 106.728,135.306 107.5,136.5C 107.167,137.167 106.833,137.833 106.5,138.5C 106.5,138.833 106.5,139.167 106.5,139.5C 103.513,139.948 102.513,141.448 103.5,144C 102.451,144.492 101.451,144.326 100.5,143.5C 98.8333,144.5 97.5,145.833 96.5,147.5C 96.1667,147.167 95.8333,146.833 95.5,146.5C 96.6477,144.851 97.981,143.351 99.5,142C 98.1669,140.16 98.3335,139.66 100,140.5C 102.582,138.772 104.082,136.439 104.5,133.5 Z"/></g>
<g><path style="opacity:1" fill="#8e8dba" d="M 107.5,136.5 C 112.167,139.167 116.833,139.167 121.5,136.5C 121.833,137.167 122.167,137.833 122.5,138.5C 120.62,138.229 119.287,138.896 118.5,140.5C 115.833,139.167 113.167,139.167 110.5,140.5C 109.713,138.896 108.38,138.229 106.5,138.5C 106.833,137.833 107.167,137.167 107.5,136.5 Z"/></g>
<g><path style="opacity:1" fill="#4f4d9b" d="M 124.5,133.5 C 124.918,136.439 126.418,138.772 129,140.5C 130.666,139.66 130.833,140.16 129.5,142C 131.019,143.351 132.352,144.851 133.5,146.5C 133.167,146.833 132.833,147.167 132.5,147.5C 131.5,145.833 130.167,144.5 128.5,143.5C 127.549,144.326 126.549,144.492 125.5,144C 126.238,141.497 125.238,139.663 122.5,138.5C 122.167,137.833 121.833,137.167 121.5,136.5C 122.272,135.306 123.272,134.306 124.5,133.5 Z"/></g>
<g><path style="opacity:1" fill="#3f4095" d="M 118.5,140.5 C 119.709,145.46 120.709,150.46 121.5,155.5C 116.833,155.5 112.167,155.5 107.5,155.5C 108.289,150.464 109.289,145.464 110.5,140.5C 113.167,139.167 115.833,139.167 118.5,140.5 Z"/></g>
<g><path style="opacity:1" fill="#c9cadc" d="M 104.5,123.5 C 104.5,126.833 104.5,130.167 104.5,133.5C 104.082,136.439 102.582,138.772 100,140.5C 98.3335,139.66 98.1669,140.16 99.5,142C 97.981,143.351 96.6477,144.851 95.5,146.5C 95.8333,146.833 96.1667,147.167 96.5,147.5C 97.5,145.833 98.8333,144.5 100.5,143.5C 101.451,144.326 102.451,144.492 103.5,144C 102.513,141.448 103.513,139.948 106.5,139.5C 108.224,139.461 108.557,139.794 107.5,140.5C 106.082,142.187 104.749,144.02 103.5,146C 102.451,146.492 101.451,146.326 100.5,145.5C 99.4803,148.506 97.4803,149.673 94.5,149C 92.7767,145.592 93.7767,143.259 97.5,142C 96.7239,139.071 98.0573,137.404 101.5,137C 102.738,136.31 102.738,135.81 101.5,135.5C 102.091,134.849 102.757,134.182 103.5,133.5C 103.043,132.702 102.376,132.369 101.5,132.5C 103.727,130.126 104.06,127.459 102.5,124.5C 103.167,124.167 103.833,123.833 104.5,123.5 Z"/></g>
</svg>
