<svg viewBox="0 0 203 61" fill="none" xmlns="http://www.w3.org/2000/svg">
<path d="M66.3769 0H64.483V61H66.3769V0Z" fill="#3F409B"/>
<path fill-rule="evenodd" clip-rule="evenodd" d="M34.451 0.270721H38.4192V5.32398H41.756V0.270721H46.2653V5.32398H50.1433V0.270721H54.3821V22.8299H46.085V18.1376H41.756V22.7397L34.451 22.8299V0.270721Z" fill="#3F409B"/>
<path fill-rule="evenodd" clip-rule="evenodd" d="M0.090186 0.270721H8.29711V13.355H19.9311V22.8299H0L0.090186 0.270721Z" fill="#3F409B"/>
<path fill-rule="evenodd" clip-rule="evenodd" d="M41.6659 27.5222V35.9142H34.451V47.7352H21.2839L21.3741 36.0045H12.1751V27.5222H0V30.2293V31.5829L0.0901859 32.7559L0.180372 33.929L0.270558 35.1021L0.541116 36.2752L0.631302 37.2678L0.901859 38.3506L1.08223 39.3432L1.35279 40.2456L1.71353 41.148L2.07428 42.0503L2.52521 42.9527L2.88595 43.7648L3.33688 44.4867L3.78781 45.2988L4.32893 46.111L4.87004 46.8329L5.41116 47.5548L5.95227 48.1864L6.58357 48.8181L7.30506 49.54L7.84618 50.0814L8.56766 50.713L9.28915 51.3447L10.1008 51.7959L10.7321 52.4275L11.5438 52.8787L12.4457 53.4201L13.2573 53.8713L14.069 54.4127L14.9709 54.8639L15.8727 55.4054L16.8648 55.8565H16.955L17.5863 56.2175L18.1274 56.4882L18.8489 56.7589L19.4802 57.1198L20.0213 57.3906L20.7428 57.7515L21.4643 58.1125L22.0054 58.3832L22.7269 58.6539L23.4483 59.0148L24.1698 59.2855L24.8011 59.5562L26.2441 60.1879L27.7773 60.8196L29.1301 60.1879L30.6632 59.5562L32.016 59.0148L33.2786 58.3832L34.7216 57.7515L35.9842 57.1198L37.2468 56.4882L38.5094 55.8565L39.6818 55.3151L40.764 54.5932L42.0266 53.8713L43.0187 53.2397L44.1009 52.5178L45.093 51.7959L45.9948 50.9838L46.8967 50.1716L47.7985 49.2693L48.6102 48.5474L49.4219 47.5548L50.0532 46.6524L50.6845 45.6598L51.406 44.4867L51.8569 43.4039L52.398 42.321L52.849 41.0577L53.2999 39.7944L53.5704 38.4409L53.841 36.9971L54.1116 35.6435L54.2919 34.0193L54.3821 32.4852V30.7707V27.5222H41.6659Z" fill="#3F409B"/>
<path d="M76.2972 11.2796C77.8304 11.4601 79.0028 10.4675 79.0028 6.76777V2.52664H86.1275V12.4527H84.5943V3.60948H80.536V7.03848C80.536 11.6405 78.642 12.7234 76.3874 12.4527V11.2796H76.2972Z" fill="#3F409B"/>
<path d="M95.4167 2.52664H97.04L93.2522 10.7382C92.3503 12.6332 91.2681 12.6332 90.3663 12.6332C89.8251 12.6332 89.5546 12.6332 89.1037 12.5429V11.3698C89.4644 11.4601 89.8251 11.5503 90.1859 11.5503C90.8172 11.5503 91.4485 11.4601 91.9896 10.0163L87.6607 2.52664H89.5546L92.8915 8.48226L95.4167 2.52664Z" fill="#3F409B"/>
<path d="M105.518 11.2796V2.52664H107.051V11.2796H108.674L108.584 14.7086H107.321V12.5429H98.483V2.61688H100.016V11.3698H105.698V11.2796H105.518Z" fill="#3F409B"/>
<path d="M111.74 6.49708H115.077C116.43 6.49708 118.775 6.85803 118.775 9.47489C118.775 12.0918 116.25 12.3625 115.077 12.3625H110.297V2.43643H111.831C111.74 2.52667 111.74 6.49708 111.74 6.49708ZM111.74 11.2796H114.807C115.077 11.2796 117.061 11.1894 117.061 9.47489C117.061 8.57253 116.701 7.67016 114.536 7.67016H111.65V11.2796H111.74Z" fill="#3F409B"/>
<path d="M127.072 2.52664H128.966L123.555 7.12871L129.236 12.4527H127.252L122.022 7.21895V12.4527H120.488V2.52664H122.022V7.03848L127.072 2.52664Z" fill="#3F409B"/>
<path d="M138.165 2.52664H139.698V12.4527H138.165V4.33138L132.213 12.4527H130.679V2.52664H132.213V10.4675L138.165 2.52664Z" fill="#3F409B"/>
<path d="M150.069 2.52664H151.603V12.4527H150.069V4.33137L144.117 12.4527H142.584V2.52664H144.117V10.4675L150.069 2.52664ZM145.47 0.270721C145.47 0.902378 146.011 1.35356 147.093 1.35356C148.175 1.35356 148.626 0.721905 148.717 0.270721H149.889C149.528 1.62427 148.356 2.16569 147.093 2.16569C145.831 2.16569 144.658 1.62427 144.297 0.270721H145.47Z" fill="#3F409B"/>
<path d="M79.0028 28.4245H77.3795V18.4985H78.9126V22.5592H84.5943V18.4985H86.1275V28.4245H84.5943V23.7322H78.9126V28.4245H79.0028Z" fill="#3F409B"/>
<path d="M89.1037 28.4245H87.4803L91.8093 18.4985H93.4326L97.7615 28.4245H96.1382L95.056 25.8077H90.1859L89.1037 28.4245ZM94.605 24.7248L92.6209 19.8521L90.6369 24.7248H94.605Z" fill="#3F409B"/>
<path d="M106.239 27.3417V18.5887H107.772V27.3417H109.396L109.305 30.7707H108.043V28.605H99.2045V18.679H100.738V27.4319H106.419V27.3417H106.239Z" fill="#3F409B"/>
<path d="M112.462 18.5887V28.5148H110.929V18.5887H112.462Z" fill="#3F409B"/>
<path d="M119.947 18.2278C122.472 18.2278 125.358 19.4009 125.358 23.5518C125.358 28.7855 120.669 28.8757 119.947 28.8757C119.226 28.8757 114.536 28.7855 114.536 23.5518C114.536 20.0325 116.701 18.2278 119.947 18.2278ZM119.947 27.6124C120.759 27.6124 123.735 27.5222 123.735 23.5518C123.735 21.2959 122.563 19.4911 119.947 19.4911C116.43 19.4911 116.159 22.5592 116.159 23.5518C116.159 25.0858 116.701 27.6124 119.947 27.6124Z" fill="#3F409B"/>
<path d="M128.876 28.4245H127.343V18.4985H128.876V22.5592H134.557V18.4985H136.091V28.4245H134.557V23.7322H128.876V28.4245Z" fill="#3F409B"/>
<path d="M139.067 28.4245H137.443L141.772 18.4985H143.396L147.725 28.4245H146.101L145.019 25.8077H140.239L139.067 28.4245ZM144.478 24.7248L142.494 19.8521L140.51 24.7248H144.478Z" fill="#3F409B"/>
<path d="M147.725 27.3417C149.258 27.5222 150.43 26.5296 150.43 22.8299V18.4985H157.555V28.4245H156.022V19.6716H151.963V23.1006C151.963 27.7026 150.069 28.7855 147.815 28.5148V27.3417H147.725Z" fill="#3F409B"/>
<path d="M161.794 22.5592H165.13C166.483 22.5592 168.828 22.9201 168.828 25.537C168.828 28.1538 166.303 28.4245 165.13 28.4245H160.26V18.4985H161.794V22.5592ZM161.794 27.3417H164.86C165.13 27.3417 167.115 27.2515 167.115 25.537C167.115 24.6346 166.754 23.7322 164.589 23.7322H161.703L161.794 27.3417Z" fill="#3F409B"/>
<path d="M172.075 28.4245H170.542V18.4985H172.075V22.5592H177.756V18.4985H179.29V28.4245H177.756V23.7322H172.075V28.4245Z" fill="#3F409B"/>
<path d="M189.571 18.5887H191.104V28.5148H189.571V20.3935L183.619 28.5148H182.085V18.5887H183.619V26.5296L189.571 18.5887Z" fill="#3F409B"/>
<path d="M201.385 18.5888H202.918V28.5148H201.385V20.3935L195.433 28.5148H193.9V18.5888H195.433V26.5296L201.385 18.5888ZM196.876 16.2426C196.876 16.8743 197.417 17.3255 198.499 17.3255C199.581 17.3255 200.032 16.6938 200.123 16.2426H201.295C200.934 17.5962 199.762 18.1376 198.499 18.1376C197.237 18.1376 196.064 17.5962 195.703 16.2426H196.876Z" fill="#3F409B"/>
<path d="M76.2972 35.7338V34.6509H85.1354V35.7338H81.4378V44.4867H79.9046V35.7338H76.2972Z" fill="#3F409B"/>
<path d="M94.1541 38.8017V39.8846H88.2921V43.4038H94.9658V44.4866H86.6687V34.5606H94.7854V35.6434H88.2019V38.8017H94.1541Z" fill="#3F409B"/>
<path d="M102.992 34.5606H104.886L101.098 39.4334L105.067 44.4866H103.083L100.106 40.426L97.1303 44.4866H95.1462L99.1144 39.4334L95.3266 34.5606H97.2205L100.016 38.4408L102.992 34.5606Z" fill="#3F409B"/>
<path d="M108.043 44.4866H106.51V34.5606H108.043V38.6213H113.724V34.5606H115.258V44.4866H113.724V39.7943H108.043V44.4866Z" fill="#3F409B"/>
<path d="M119.406 34.5606V44.4866H117.873V34.5606C117.963 34.5606 119.406 34.5606 119.406 34.5606Z" fill="#3F409B"/>
<path d="M123.284 34.5606V37.4482C123.284 38.9822 124.186 39.1627 125.99 39.1627C126.621 39.1627 127.703 39.0724 128.154 39.0724V34.5606H129.687V44.4866H128.154V40.1553C127.523 40.1553 126.26 40.2455 125.629 40.2455C122.833 40.2455 121.661 39.7041 121.661 37.6287V34.5606C121.751 34.5606 123.284 34.5606 123.284 34.5606Z" fill="#3F409B"/>
<path d="M134.016 44.4866H132.483V34.5606H134.016V38.6213H139.698V34.5606H141.231V44.4866H139.698V39.7943H134.016V44.4866Z" fill="#3F409B"/>
<path d="M151.512 34.5606H153.046V44.4866H151.512V36.3653L145.56 44.4866H144.027V34.5606H145.56V42.5014L151.512 34.5606Z" fill="#3F409B"/>
<path d="M163.327 34.5607H164.86V44.4867H163.327V36.3654L157.374 44.4867H155.841V34.5607H157.374V42.5015L163.327 34.5607ZM158.727 32.3048C158.727 32.9364 159.268 33.3876 160.351 33.3876C161.433 33.3876 161.884 32.756 161.974 32.3048H163.146C162.786 33.6583 161.613 34.1998 160.351 34.1998C159.088 34.1998 157.915 33.6583 157.555 32.3048H158.727Z" fill="#3F409B"/>
<path d="M83.9631 50.6228H85.5864L81.7986 58.8343C80.8968 60.7293 79.8145 60.7293 78.9127 60.7293C78.3716 60.7293 78.101 60.7293 77.6501 60.6391V59.466C78.0108 59.5562 78.3716 59.6465 78.7323 59.6465C79.3636 59.6465 79.9949 59.5562 80.536 58.1125L76.2071 50.6228H78.101L81.4379 56.5784L83.9631 50.6228Z" fill="#3F409B"/>
<path d="M88.4725 60.5488H86.9393V50.6228H88.4725V54.6835H94.1542V50.6228H95.6874V60.5488H94.1542V55.8565H88.4725V60.5488Z" fill="#3F409B"/>
<path d="M99.926 50.6228V60.5488H98.3027V50.6228H99.926Z" fill="#3F409B"/>
<path d="M107.682 50.6228C110.478 50.6228 111.109 51.9764 111.109 53.1494C111.109 54.3225 110.297 55.1346 109.215 55.2249C110.117 55.3151 111.65 55.9468 111.65 57.7515C111.65 59.1051 110.838 60.5488 107.682 60.5488H102.902V50.6228H107.682ZM104.165 54.7737H107.231C108.944 54.7737 109.395 54.0518 109.395 53.2397C109.395 52.608 109.125 51.7056 107.231 51.7056H104.165V54.7737ZM104.165 59.3758H107.321C108.403 59.3758 109.937 59.2855 109.937 57.571C109.937 56.3077 108.944 55.8565 107.321 55.8565H104.165V59.3758Z" fill="#3F409B"/>
<path d="M121.21 54.8639V55.9468H115.348V59.466H122.022V60.5488H113.725V50.6228H121.841V51.6154H115.348V54.6835H121.21V54.8639Z" fill="#3F409B"/>
<path d="M128.335 50.6228C130.589 50.6228 132.122 51.4349 132.122 53.5104C132.122 55.4053 131.04 56.5784 128.154 56.5784H125.268V60.5488H123.735V50.6228H128.335ZM125.178 55.4956H127.974C129.778 55.4956 130.589 54.7737 130.589 53.5104C130.589 52.3373 129.778 51.7056 127.974 51.7056H125.178V55.4956Z" fill="#3F409B"/>
<path d="M143.576 57.3003C143.396 58.6539 142.404 60.9098 138.796 60.9098C135.369 60.9098 133.385 59.0148 133.385 55.8565C133.385 50.5326 137.804 50.4423 138.706 50.4423C142.313 50.4423 143.215 52.3373 143.396 53.8713H141.862C141.772 53.1494 141.231 51.7056 138.706 51.7056C135.91 51.7056 135.008 53.7811 135.008 56.037C135.008 58.2929 136.361 60.0074 138.796 60.0074C140.6 60.0074 141.862 58.9246 141.953 57.4808H143.576V57.3003Z" fill="#3F409B"/>
<path d="M153.046 50.6228H154.579V60.5488H153.046V52.4275L147.093 60.5488H145.56V50.6228H147.093V58.5636L153.046 50.6228Z" fill="#3F409B"/>
<path d="M156.112 51.7056V50.6228H164.95V51.7056H161.252V60.4586H159.719V51.7056H156.112Z" fill="#3F409B"/>
<path d="M174.059 54.8639V55.9468H168.197V59.466H174.87V60.5488H166.573V50.6228H174.69V51.6154H168.107V54.6835H174.059V54.8639Z" fill="#3F409B"/>
<path d="M175.412 51.7056V50.6228H184.25V51.7056H180.552V60.4586H179.019V51.7056H175.412Z" fill="#3F409B"/>
</svg>
