<svg width="145" height="160" viewBox="0 0 145 160" fill="none" xmlns="http://www.w3.org/2000/svg">
<path fill-rule="evenodd" clip-rule="evenodd" d="M23.1234 35V0H0.123423C-0.207143 20.1736 0.126353 40.1736 1.12342 60H53.1234C53.4495 51.4832 53.1161 43.1499 52.1234 35H23.1234ZM134.123 1C134.441 5.53229 134.108 9.8656 133.123 14H123.123V1H111.123V14H102.123V1H92.1234V60H111.123V48H122.123V60H144.123V1H134.123ZM1.12342 72H144.123C147.468 103.474 135.801 127.307 109.123 143.5C97.6995 149.759 85.8655 155.259 73.6234 160C55.7167 153.131 38.8833 144.297 23.1234 133.5C5.66065 116.791 -1.67272 96.291 1.12342 72Z" fill="#3C3E94"/>
</svg>
